<svg xmlns="http://www.w3.org/2000/svg" xmlns:xlink="http://www.w3.org/1999/xlink" width="800" zoomAndPan="magnify" viewBox="0 0 600 599.999999" height="800" preserveAspectRatio="xMidYMid meet" version="1.0"><defs><g/><clipPath id="0df98ec8e4"><path d="M 255 427 L 343 427 L 343 427.035156 L 255 427.035156 Z M 255 427 " clip-rule="nonzero"/></clipPath><clipPath id="ffa9d6dac1"><path d="M 529 31.035156 L 568 31.035156 L 568 193 L 529 193 Z M 529 31.035156 " clip-rule="nonzero"/></clipPath><clipPath id="5922febd7b"><path d="M 473 156 L 584.527344 156 L 584.527344 323 L 473 323 Z M 473 156 " clip-rule="nonzero"/></clipPath><clipPath id="98e27392d4"><path d="M 34 31.035156 L 72 31.035156 L 72 193 L 34 193 Z M 34 31.035156 " clip-rule="nonzero"/></clipPath><clipPath id="4a9ee17c6e"><path d="M 15.277344 156 L 129 156 L 129 323 L 15.277344 323 Z M 15.277344 156 " clip-rule="nonzero"/></clipPath><clipPath id="fbee6e58c1"><path d="M 83 50 L 523 50 L 523 427.035156 L 83 427.035156 Z M 83 50 " clip-rule="nonzero"/></clipPath><clipPath id="6c70b9031a"><path d="M 205.425781 204.769531 L 234.550781 204.769531 L 234.550781 233.898438 L 205.425781 233.898438 Z M 205.425781 204.769531 " clip-rule="nonzero"/></clipPath><clipPath id="1f0375955b"><path d="M 219.988281 204.769531 C 211.945312 204.769531 205.425781 211.289062 205.425781 219.332031 C 205.425781 227.375 211.945312 233.898438 219.988281 233.898438 C 228.03125 233.898438 234.550781 227.375 234.550781 219.332031 C 234.550781 211.289062 228.03125 204.769531 219.988281 204.769531 Z M 219.988281 204.769531 " clip-rule="nonzero"/></clipPath><clipPath id="8b7fae05b3"><path d="M 0.425781 0.769531 L 29.550781 0.769531 L 29.550781 29.898438 L 0.425781 29.898438 Z M 0.425781 0.769531 " clip-rule="nonzero"/></clipPath><clipPath id="38261bcd6c"><path d="M 14.988281 0.769531 C 6.945312 0.769531 0.425781 7.289062 0.425781 15.332031 C 0.425781 23.375 6.945312 29.898438 14.988281 29.898438 C 23.03125 29.898438 29.550781 23.375 29.550781 15.332031 C 29.550781 7.289062 23.03125 0.769531 14.988281 0.769531 Z M 14.988281 0.769531 " clip-rule="nonzero"/></clipPath><clipPath id="dd8bab3fbf"><rect x="0" width="30" y="0" height="30"/></clipPath><clipPath id="c4b68b323d"><path d="M 383.355469 204.769531 L 412.484375 204.769531 L 412.484375 233.898438 L 383.355469 233.898438 Z M 383.355469 204.769531 " clip-rule="nonzero"/></clipPath><clipPath id="b8199166c9"><path d="M 397.921875 204.769531 C 389.878906 204.769531 383.355469 211.289062 383.355469 219.332031 C 383.355469 227.375 389.878906 233.898438 397.921875 233.898438 C 405.964844 233.898438 412.484375 227.375 412.484375 219.332031 C 412.484375 211.289062 405.964844 204.769531 397.921875 204.769531 Z M 397.921875 204.769531 " clip-rule="nonzero"/></clipPath><clipPath id="24fc6c82a3"><path d="M 0.355469 0.769531 L 29.484375 0.769531 L 29.484375 29.898438 L 0.355469 29.898438 Z M 0.355469 0.769531 " clip-rule="nonzero"/></clipPath><clipPath id="ec7290ee68"><path d="M 14.921875 0.769531 C 6.878906 0.769531 0.355469 7.289062 0.355469 15.332031 C 0.355469 23.375 6.878906 29.898438 14.921875 29.898438 C 22.964844 29.898438 29.484375 23.375 29.484375 15.332031 C 29.484375 7.289062 22.964844 0.769531 14.921875 0.769531 Z M 14.921875 0.769531 " clip-rule="nonzero"/></clipPath><clipPath id="b878655a1f"><rect x="0" width="30" y="0" height="30"/></clipPath><clipPath id="0f9e9dcac0"><path d="M 248.53125 272.050781 L 370.277344 272.050781 L 370.277344 313.410156 L 248.53125 313.410156 Z M 248.53125 272.050781 " clip-rule="nonzero"/></clipPath><clipPath id="298952452a"><path d="M 0.53125 0.0507812 L 122.277344 0.0507812 L 122.277344 41.410156 L 0.53125 41.410156 Z M 0.53125 0.0507812 " clip-rule="nonzero"/></clipPath><clipPath id="a56e3e1c06"><rect x="0" width="123" y="0" height="42"/></clipPath><clipPath id="c063277088"><path d="M 189.40625 313.410156 L 429.40625 313.410156 L 429.40625 358.148438 L 189.40625 358.148438 Z M 189.40625 313.410156 " clip-rule="nonzero"/></clipPath><clipPath id="0fd8935165"><rect x="0" width="515" y="0" height="149"/></clipPath></defs><g clip-path="url(#0df98ec8e4)"><path fill="#ffbd59" d="M 255.648438 427.0625 L 255.648438 439.832031 C 255.648438 439.832031 290.0625 461.476562 341.285156 441.078125 L 342.515625 427.0625 Z M 255.648438 427.0625 " fill-opacity="1" fill-rule="nonzero"/></g><g clip-path="url(#ffa9d6dac1)"><path fill="#004aad" d="M 567.628906 49.945312 C 567.628906 39.507812 559.167969 31.042969 548.730469 31.042969 C 538.289062 31.042969 529.828125 39.507812 529.828125 49.945312 C 529.828125 59.046875 536.261719 66.644531 544.824219 68.441406 C 544.121094 93.355469 541.738281 179.511719 542.316406 181.246094 L 553.792969 192.046875 L 551.234375 68.679688 C 560.488281 67.453125 567.628906 59.535156 567.628906 49.949219 Z M 567.628906 49.945312 " fill-opacity="1" fill-rule="nonzero"/></g><g clip-path="url(#5922febd7b)"><path fill="#004aad" d="M 552.027344 176.75 C 544.570312 164.472656 531.066406 156.265625 515.652344 156.265625 C 492.164062 156.265625 473.121094 175.308594 473.121094 198.796875 L 473.121094 280.140625 C 473.121094 303.628906 492.164062 322.667969 515.652344 322.667969 C 528.757812 322.667969 540.480469 316.738281 548.28125 307.414062 C 569.761719 305.265625 586.53125 287.140625 586.53125 265.097656 L 586.53125 218.519531 C 586.53125 197.773438 571.675781 180.5 552.027344 176.75 Z M 552.027344 176.75 " fill-opacity="1" fill-rule="nonzero"/></g><g clip-path="url(#98e27392d4)"><path fill="#004aad" d="M 34.191406 49.945312 C 34.191406 39.507812 42.652344 31.042969 53.09375 31.042969 C 63.53125 31.042969 71.996094 39.507812 71.996094 49.945312 C 71.996094 59.046875 65.5625 66.644531 56.996094 68.441406 C 57.699219 93.355469 60.082031 179.511719 59.507812 181.246094 L 48.03125 192.046875 L 50.585938 68.679688 C 41.332031 67.453125 34.191406 59.535156 34.191406 49.949219 Z M 34.191406 49.945312 " fill-opacity="1" fill-rule="nonzero"/></g><g clip-path="url(#4a9ee17c6e)"><path fill="#004aad" d="M 49.792969 176.75 C 57.25 164.472656 70.75 156.265625 86.167969 156.265625 C 109.65625 156.265625 128.695312 175.308594 128.695312 198.796875 L 128.695312 280.140625 C 128.695312 303.628906 109.65625 322.667969 86.167969 322.667969 C 73.0625 322.667969 61.339844 316.738281 53.539062 307.414062 C 32.058594 305.265625 15.289062 287.140625 15.289062 265.097656 L 15.289062 218.519531 C 15.289062 197.773438 30.140625 180.5 49.792969 176.75 Z M 49.792969 176.75 " fill-opacity="1" fill-rule="nonzero"/></g><g clip-path="url(#fbee6e58c1)"><path fill="#004aad" d="M 503.753906 91.800781 C 482.152344 57.035156 404.492188 54.964844 365.03125 53.320312 C 170.359375 45.21875 124.121094 57.035156 102.515625 91.800781 C 80.914062 126.5625 78.214844 333.132812 92.730469 369.921875 C 107.246094 406.714844 149.664062 416.941406 151.121094 417.851562 C 162.082031 424.699219 264.433594 431.460938 303.136719 430.335938 C 341.839844 431.460938 444.191406 424.699219 455.152344 417.851562 C 456.613281 416.941406 499.03125 406.714844 513.546875 369.921875 C 528.058594 333.132812 525.359375 126.566406 503.757812 91.800781 Z M 503.753906 91.800781 " fill-opacity="1" fill-rule="nonzero"/></g><path fill="#ffbd59" d="M 470 116.429688 C 452.035156 87.511719 385.339844 84.648438 352.625 81.671875 C 315.496094 78.300781 274.992188 78.972656 237.191406 82.347656 C 204.46875 85.269531 154.234375 87.511719 136.269531 116.429688 C 118.304688 145.34375 116.054688 317.160156 128.128906 347.757812 C 140.199219 378.359375 175.480469 386.867188 176.699219 387.625 C 185.8125 393.320312 270.945312 392.175781 303.136719 391.238281 C 335.328125 392.175781 420.460938 393.320312 429.574219 387.625 C 430.789062 386.867188 466.070312 378.359375 478.144531 347.757812 C 490.214844 317.160156 487.96875 145.34375 470 116.429688 Z M 470 116.429688 " fill-opacity="1" fill-rule="nonzero"/><path fill="#ffffff" d="M 257.332031 218.367188 C 257.332031 219.972656 257.269531 221.574219 257.152344 223.171875 C 257.035156 224.765625 256.859375 226.351562 256.625 227.925781 C 256.386719 229.5 256.097656 231.050781 255.746094 232.585938 C 255.394531 234.121094 254.992188 235.632812 254.53125 237.113281 C 254.070312 238.597656 253.554688 240.042969 252.984375 241.460938 C 252.417969 242.875 251.800781 244.25 251.128906 245.582031 C 250.460938 246.917969 249.742188 248.203125 248.980469 249.441406 C 248.214844 250.683594 247.40625 251.871094 246.554688 253.003906 C 245.703125 254.140625 244.8125 255.214844 243.878906 256.234375 C 242.949219 257.25 241.980469 258.203125 240.980469 259.097656 C 239.976562 259.988281 238.945312 260.8125 237.882812 261.566406 C 236.820312 262.324219 235.730469 263.007812 234.617188 263.621094 C 233.503906 264.238281 232.371094 264.777344 231.21875 265.242188 C 230.066406 265.707031 228.898438 266.097656 227.71875 266.410156 C 226.535156 266.722656 225.34375 266.957031 224.144531 267.117188 C 222.945312 267.273438 221.746094 267.351562 220.539062 267.351562 C 219.335938 267.351562 218.132812 267.273438 216.933594 267.117188 C 215.734375 266.957031 214.542969 266.722656 213.363281 266.410156 C 212.179688 266.097656 211.011719 265.707031 209.859375 265.242188 C 208.707031 264.777344 207.574219 264.238281 206.460938 263.621094 C 205.347656 263.007812 204.257812 262.324219 203.195312 261.566406 C 202.132812 260.8125 201.101562 259.988281 200.101562 259.097656 C 199.097656 258.207031 198.132812 257.25 197.199219 256.234375 C 196.269531 255.214844 195.375 254.140625 194.523438 253.003906 C 193.671875 251.871094 192.863281 250.683594 192.101562 249.441406 C 191.335938 248.203125 190.617188 246.917969 189.949219 245.582031 C 189.28125 244.25 188.660156 242.875 188.09375 241.460938 C 187.523438 240.042969 187.011719 238.597656 186.550781 237.113281 C 186.089844 235.632812 185.683594 234.121094 185.332031 232.585938 C 184.984375 231.050781 184.691406 229.5 184.457031 227.925781 C 184.222656 226.351562 184.042969 224.765625 183.925781 223.171875 C 183.808594 221.574219 183.75 219.972656 183.75 218.367188 C 183.75 216.765625 183.808594 215.164062 183.925781 213.566406 C 184.042969 211.972656 184.222656 210.386719 184.457031 208.8125 C 184.691406 207.238281 184.984375 205.683594 185.332031 204.148438 C 185.683594 202.613281 186.089844 201.105469 186.550781 199.625 C 187.011719 198.140625 187.523438 196.695312 188.09375 195.277344 C 188.660156 193.863281 189.28125 192.488281 189.949219 191.15625 C 190.617188 189.820312 191.335938 188.535156 192.101562 187.296875 C 192.863281 186.054688 193.671875 184.867188 194.523438 183.734375 C 195.375 182.597656 196.269531 181.523438 197.199219 180.503906 C 198.132812 179.488281 199.097656 178.53125 200.101562 177.640625 C 201.101562 176.75 202.132812 175.925781 203.195312 175.171875 C 204.257812 174.414062 205.347656 173.730469 206.460938 173.117188 C 207.574219 172.5 208.707031 171.960938 209.859375 171.496094 C 211.011719 171.03125 212.179688 170.640625 213.363281 170.328125 C 214.542969 170.015625 215.734375 169.78125 216.933594 169.621094 C 218.132812 169.464844 219.335938 169.386719 220.539062 169.386719 C 221.746094 169.386719 222.945312 169.464844 224.144531 169.621094 C 225.34375 169.78125 226.535156 170.015625 227.71875 170.328125 C 228.898438 170.640625 230.066406 171.03125 231.21875 171.496094 C 232.371094 171.960938 233.503906 172.5 234.617188 173.117188 C 235.730469 173.730469 236.820312 174.414062 237.882812 175.171875 C 238.945312 175.925781 239.976562 176.75 240.980469 177.640625 C 241.980469 178.53125 242.949219 179.488281 243.878906 180.503906 C 244.8125 181.523438 245.703125 182.597656 246.554688 183.734375 C 247.40625 184.867188 248.214844 186.054688 248.980469 187.296875 C 249.742188 188.535156 250.460938 189.820312 251.128906 191.15625 C 251.800781 192.488281 252.417969 193.863281 252.984375 195.277344 C 253.554688 196.695312 254.070312 198.140625 254.53125 199.625 C 254.992188 201.105469 255.394531 202.613281 255.746094 204.148438 C 256.097656 205.683594 256.386719 207.238281 256.625 208.8125 C 256.859375 210.386719 257.035156 211.972656 257.152344 213.566406 C 257.269531 215.164062 257.332031 216.765625 257.332031 218.367188 Z M 257.332031 218.367188 " fill-opacity="1" fill-rule="nonzero"/><path fill="#ffffff" d="M 434.570312 218.367188 C 434.570312 219.972656 434.511719 221.574219 434.394531 223.171875 C 434.273438 224.765625 434.097656 226.351562 433.863281 227.925781 C 433.628906 229.5 433.335938 231.050781 432.984375 232.585938 C 432.636719 234.121094 432.230469 235.632812 431.769531 237.113281 C 431.308594 238.597656 430.792969 240.042969 430.226562 241.460938 C 429.65625 242.875 429.039062 244.25 428.371094 245.582031 C 427.699219 246.917969 426.984375 248.203125 426.21875 249.441406 C 425.453125 250.683594 424.648438 251.871094 423.792969 253.003906 C 422.941406 254.140625 422.050781 255.214844 421.121094 256.234375 C 420.1875 257.25 419.222656 258.203125 418.21875 259.097656 C 417.21875 259.988281 416.183594 260.8125 415.121094 261.566406 C 414.058594 262.324219 412.972656 263.007812 411.859375 263.621094 C 410.746094 264.238281 409.613281 264.777344 408.460938 265.242188 C 407.304688 265.707031 406.140625 266.097656 404.957031 266.410156 C 403.773438 266.722656 402.585938 266.957031 401.386719 267.117188 C 400.1875 267.273438 398.984375 267.351562 397.78125 267.351562 C 396.574219 267.351562 395.371094 267.273438 394.171875 267.117188 C 392.972656 266.957031 391.785156 266.722656 390.601562 266.410156 C 389.421875 266.097656 388.253906 265.707031 387.101562 265.242188 C 385.945312 264.777344 384.8125 264.238281 383.699219 263.621094 C 382.585938 263.007812 381.5 262.324219 380.4375 261.566406 C 379.375 260.8125 378.339844 259.988281 377.339844 259.097656 C 376.339844 258.207031 375.371094 257.25 374.441406 256.234375 C 373.507812 255.214844 372.617188 254.140625 371.765625 253.003906 C 370.914062 251.871094 370.105469 250.683594 369.339844 249.441406 C 368.574219 248.203125 367.859375 246.917969 367.1875 245.582031 C 366.519531 244.25 365.902344 242.875 365.332031 241.460938 C 364.765625 240.042969 364.25 238.597656 363.789062 237.113281 C 363.328125 235.632812 362.921875 234.121094 362.574219 232.585938 C 362.222656 231.050781 361.929688 229.5 361.695312 227.925781 C 361.460938 226.351562 361.285156 224.765625 361.167969 223.171875 C 361.046875 221.574219 360.988281 219.972656 360.988281 218.367188 C 360.988281 216.765625 361.046875 215.164062 361.167969 213.566406 C 361.285156 211.972656 361.460938 210.386719 361.695312 208.8125 C 361.929688 207.238281 362.222656 205.683594 362.574219 204.148438 C 362.921875 202.613281 363.328125 201.105469 363.789062 199.625 C 364.25 198.140625 364.765625 196.695312 365.332031 195.277344 C 365.902344 193.863281 366.519531 192.488281 367.1875 191.15625 C 367.859375 189.820312 368.574219 188.535156 369.339844 187.296875 C 370.105469 186.054688 370.914062 184.867188 371.765625 183.734375 C 372.617188 182.597656 373.507812 181.523438 374.441406 180.503906 C 375.371094 179.488281 376.339844 178.53125 377.339844 177.640625 C 378.339844 176.75 379.375 175.925781 380.4375 175.171875 C 381.5 174.414062 382.585938 173.730469 383.699219 173.117188 C 384.8125 172.5 385.945312 171.960938 387.101562 171.496094 C 388.253906 171.03125 389.421875 170.640625 390.601562 170.328125 C 391.785156 170.015625 392.972656 169.78125 394.171875 169.621094 C 395.371094 169.464844 396.574219 169.386719 397.78125 169.386719 C 398.984375 169.386719 400.1875 169.464844 401.386719 169.621094 C 402.585938 169.78125 403.773438 170.015625 404.957031 170.328125 C 406.140625 170.640625 407.304688 171.03125 408.460938 171.496094 C 409.613281 171.960938 410.746094 172.5 411.859375 173.117188 C 412.972656 173.730469 414.058594 174.414062 415.121094 175.171875 C 416.183594 175.925781 417.21875 176.75 418.21875 177.640625 C 419.222656 178.53125 420.1875 179.488281 421.121094 180.503906 C 422.050781 181.523438 422.941406 182.597656 423.792969 183.734375 C 424.648438 184.867188 425.453125 186.054688 426.21875 187.296875 C 426.984375 188.535156 427.699219 189.820312 428.371094 191.15625 C 429.039062 192.488281 429.65625 193.863281 430.226562 195.277344 C 430.792969 196.695312 431.308594 198.140625 431.769531 199.625 C 432.230469 201.105469 432.636719 202.613281 432.984375 204.148438 C 433.335938 205.683594 433.628906 207.238281 433.863281 208.8125 C 434.097656 210.386719 434.273438 211.972656 434.394531 213.566406 C 434.511719 215.164062 434.570312 216.765625 434.570312 218.367188 Z M 434.570312 218.367188 " fill-opacity="1" fill-rule="nonzero"/><path fill="#ffffff" d="M 518.558594 314.648438 C 518.488281 314.648438 518.417969 314.644531 518.347656 314.636719 C 517.210938 314.519531 516.382812 313.507812 516.5 312.371094 C 522.640625 251.914062 516.566406 165.675781 516.496094 164.890625 C 516.398438 163.753906 517.238281 162.75 518.375 162.648438 C 519.511719 162.546875 520.515625 163.386719 520.617188 164.523438 C 520.792969 166.511719 522.292969 188.855469 523.003906 217.242188 C 523.664062 243.609375 523.78125 281.589844 520.613281 312.789062 C 520.507812 313.855469 519.609375 314.648438 518.558594 314.648438 Z M 518.558594 314.648438 " fill-opacity="1" fill-rule="nonzero"/><path fill="#ffffff" d="M 547.351562 300.578125 C 547.261719 300.578125 547.175781 300.574219 547.085938 300.5625 C 545.953125 300.417969 545.152344 299.382812 545.296875 298.25 C 551.425781 250.132812 545.363281 181.488281 545.292969 180.859375 C 545.167969 179.726562 545.984375 178.703125 547.117188 178.574219 C 548.253906 178.449219 549.277344 179.265625 549.402344 180.402344 C 549.578125 181.988281 551.082031 199.832031 551.792969 222.484375 C 552.453125 243.53125 552.574219 273.851562 549.398438 298.773438 C 549.265625 299.816406 548.375 300.578125 547.351562 300.578125 Z M 547.351562 300.578125 " fill-opacity="1" fill-rule="nonzero"/><path fill="#ffffff" d="M 87.765625 319.328125 C 86.71875 319.328125 85.820312 318.535156 85.710938 317.46875 C 82.542969 286.269531 82.664062 248.289062 83.324219 221.921875 C 84.03125 193.535156 85.535156 171.191406 85.710938 169.207031 C 85.8125 168.066406 86.816406 167.226562 87.953125 167.328125 C 89.089844 167.429688 89.929688 168.433594 89.828125 169.570312 C 89.757812 170.355469 83.6875 256.597656 89.828125 317.050781 C 89.941406 318.1875 89.117188 319.203125 87.980469 319.316406 C 87.910156 319.324219 87.835938 319.328125 87.765625 319.328125 Z M 87.765625 319.328125 " fill-opacity="1" fill-rule="nonzero"/><path fill="#ffffff" d="M 58.976562 305.257812 C 57.953125 305.257812 57.0625 304.496094 56.929688 303.453125 C 53.753906 278.53125 53.875 248.210938 54.535156 227.167969 C 55.246094 204.511719 56.75 186.667969 56.925781 185.082031 C 57.050781 183.945312 58.074219 183.128906 59.210938 183.253906 C 60.34375 183.382812 61.160156 184.40625 61.035156 185.539062 C 60.964844 186.164062 54.898438 254.8125 61.03125 302.929688 C 61.175781 304.0625 60.375 305.097656 59.242188 305.242188 C 59.152344 305.253906 59.066406 305.257812 58.976562 305.257812 Z M 58.976562 305.257812 " fill-opacity="1" fill-rule="nonzero"/><path stroke-linecap="round" transform="matrix(0.179791, 0, 0, 0.179791, -167.345633, -2.963018)" fill="none" stroke-linejoin="round" d="M 2437.233252 1566.606763 C 2449.508771 1588.420251 2514.101899 1684.430017 2648.502535 1676.78226 C 2802.109469 1668.069901 2835.850851 1552.636571 2835.850851 1552.636571 " stroke="#77f8f7" stroke-width="34" stroke-opacity="1" stroke-miterlimit="4"/><g clip-path="url(#6c70b9031a)"><g clip-path="url(#1f0375955b)"><g transform="matrix(1, 0, 0, 1, 205, 204)"><g clip-path="url(#dd8bab3fbf)"><g clip-path="url(#8b7fae05b3)"><g clip-path="url(#38261bcd6c)"><path fill="#000000" d="M 0.425781 0.769531 L 29.550781 0.769531 L 29.550781 29.898438 L 0.425781 29.898438 Z M 0.425781 0.769531 " fill-opacity="1" fill-rule="nonzero"/></g></g></g></g></g></g><g clip-path="url(#c4b68b323d)"><g clip-path="url(#b8199166c9)"><g transform="matrix(1, 0, 0, 1, 383, 204)"><g clip-path="url(#b878655a1f)"><g clip-path="url(#24fc6c82a3)"><g clip-path="url(#ec7290ee68)"><path fill="#000000" d="M 0.355469 0.769531 L 29.484375 0.769531 L 29.484375 29.898438 L 0.355469 29.898438 Z M 0.355469 0.769531 " fill-opacity="1" fill-rule="nonzero"/></g></g></g></g></g></g><g clip-path="url(#0f9e9dcac0)"><g transform="matrix(1, 0, 0, 1, 248, 272)"><g clip-path="url(#a56e3e1c06)"><g clip-path="url(#298952452a)"><path fill="#ffbd59" d="M 0.53125 0.0507812 L 122.347656 0.0507812 L 122.347656 41.410156 L 0.53125 41.410156 Z M 0.53125 0.0507812 " fill-opacity="1" fill-rule="nonzero"/></g></g></g></g><g clip-path="url(#c063277088)"><path fill="#ffffff" d="M 429.40625 238.148438 C 429.40625 240.113281 429.355469 242.074219 429.261719 244.035156 C 429.164062 246 429.019531 247.957031 428.828125 249.910156 C 428.636719 251.867188 428.394531 253.8125 428.105469 255.757812 C 427.820312 257.699219 427.484375 259.632812 427.097656 261.558594 C 426.714844 263.484375 426.285156 265.402344 425.808594 267.304688 C 425.332031 269.210938 424.808594 271.105469 424.238281 272.984375 C 423.667969 274.863281 423.050781 276.726562 422.390625 278.574219 C 421.730469 280.425781 421.023438 282.257812 420.269531 284.070312 C 419.519531 285.886719 418.722656 287.679688 417.882812 289.457031 C 417.042969 291.230469 416.160156 292.984375 415.234375 294.714844 C 414.308594 296.449219 413.34375 298.15625 412.332031 299.839844 C 411.324219 301.527344 410.273438 303.183594 409.183594 304.816406 C 408.089844 306.449219 406.960938 308.054688 405.789062 309.632812 C 404.621094 311.210938 403.414062 312.757812 402.167969 314.277344 C 400.921875 315.792969 399.636719 317.28125 398.320312 318.734375 C 397 320.191406 395.648438 321.613281 394.257812 323 C 392.871094 324.390625 391.449219 325.746094 389.992188 327.0625 C 388.539062 328.382812 387.050781 329.664062 385.53125 330.910156 C 384.015625 332.15625 382.464844 333.363281 380.890625 334.535156 C 379.3125 335.703125 377.707031 336.835938 376.074219 337.925781 C 374.441406 339.015625 372.78125 340.066406 371.097656 341.078125 C 369.414062 342.085938 367.703125 343.054688 365.972656 343.980469 C 364.242188 344.90625 362.488281 345.789062 360.710938 346.628906 C 358.9375 347.46875 357.140625 348.261719 355.328125 349.015625 C 353.511719 349.765625 351.679688 350.472656 349.832031 351.132812 C 347.984375 351.796875 346.117188 352.410156 344.238281 352.980469 C 342.359375 353.550781 340.46875 354.074219 338.5625 354.550781 C 336.65625 355.03125 334.742188 355.460938 332.816406 355.84375 C 330.890625 356.226562 328.957031 356.5625 327.011719 356.851562 C 325.070312 357.136719 323.121094 357.378906 321.167969 357.570312 C 319.214844 357.761719 317.253906 357.90625 315.292969 358.003906 C 313.332031 358.101562 311.371094 358.148438 309.40625 358.148438 C 307.441406 358.148438 305.480469 358.101562 303.515625 358.003906 C 301.554688 357.90625 299.597656 357.761719 297.644531 357.570312 C 295.6875 357.378906 293.742188 357.136719 291.796875 356.851562 C 289.855469 356.5625 287.921875 356.226562 285.996094 355.84375 C 284.070312 355.460938 282.152344 355.03125 280.246094 354.550781 C 278.34375 354.074219 276.449219 353.550781 274.570312 352.980469 C 272.691406 352.410156 270.828125 351.796875 268.980469 351.132812 C 267.128906 350.472656 265.296875 349.765625 263.484375 349.015625 C 261.667969 348.261719 259.875 347.46875 258.097656 346.628906 C 256.324219 345.789062 254.570312 344.90625 252.835938 343.980469 C 251.105469 343.054688 249.398438 342.085938 247.714844 341.078125 C 246.027344 340.066406 244.371094 339.015625 242.738281 337.925781 C 241.105469 336.835938 239.5 335.703125 237.921875 334.535156 C 236.34375 333.363281 234.796875 332.15625 233.277344 330.910156 C 231.761719 329.664062 230.273438 328.382812 228.820312 327.0625 C 227.363281 325.746094 225.941406 324.390625 224.550781 323 C 223.164062 321.613281 221.808594 320.191406 220.492188 318.734375 C 219.171875 317.28125 217.890625 315.792969 216.644531 314.277344 C 215.398438 312.757812 214.191406 311.210938 213.019531 309.632812 C 211.851562 308.054688 210.71875 306.449219 209.628906 304.816406 C 208.539062 303.183594 207.488281 301.527344 206.476562 299.839844 C 205.46875 298.15625 204.5 296.449219 203.574219 294.714844 C 202.648438 292.984375 201.765625 291.230469 200.925781 289.457031 C 200.085938 287.679688 199.292969 285.886719 198.539062 284.070312 C 197.789062 282.257812 197.082031 280.425781 196.421875 278.574219 C 195.757812 276.726562 195.144531 274.863281 194.574219 272.984375 C 194.003906 271.105469 193.480469 269.210938 193 267.304688 C 192.523438 265.402344 192.09375 263.484375 191.710938 261.558594 C 191.328125 259.632812 190.992188 257.699219 190.703125 255.757812 C 190.417969 253.8125 190.175781 251.867188 189.984375 249.910156 C 189.789062 247.957031 189.644531 246 189.550781 244.035156 C 189.453125 242.074219 189.40625 240.113281 189.40625 238.148438 C 189.40625 236.183594 189.453125 234.222656 189.550781 232.261719 C 189.644531 230.300781 189.789062 228.339844 189.984375 226.386719 C 190.175781 224.433594 190.417969 222.484375 190.703125 220.542969 C 190.992188 218.597656 191.328125 216.664062 191.710938 214.738281 C 192.09375 212.8125 192.523438 210.894531 193 208.992188 C 193.480469 207.085938 194.003906 205.195312 194.574219 203.316406 C 195.144531 201.433594 195.757812 199.570312 196.421875 197.722656 C 197.082031 195.875 197.789062 194.042969 198.539062 192.226562 C 199.292969 190.414062 200.085938 188.617188 200.925781 186.84375 C 201.765625 185.066406 202.648438 183.3125 203.574219 181.582031 C 204.5 179.847656 205.46875 178.140625 206.476562 176.457031 C 207.488281 174.773438 208.539062 173.113281 209.628906 171.480469 C 210.71875 169.847656 211.851562 168.242188 213.019531 166.664062 C 214.191406 165.085938 215.398438 163.539062 216.644531 162.023438 C 217.890625 160.503906 219.171875 159.015625 220.492188 157.5625 C 221.808594 156.105469 223.164062 154.683594 224.550781 153.296875 C 225.941406 151.90625 227.363281 150.554688 228.820312 149.234375 C 230.273438 147.914062 231.761719 146.632812 233.277344 145.386719 C 234.796875 144.140625 236.34375 142.933594 237.921875 141.765625 C 239.5 140.59375 241.105469 139.464844 242.738281 138.371094 C 244.371094 137.28125 246.027344 136.230469 247.714844 135.222656 C 249.398438 134.210938 251.105469 133.246094 252.835938 132.320312 C 254.570312 131.394531 256.324219 130.511719 258.097656 129.671875 C 259.875 128.832031 261.667969 128.035156 263.484375 127.285156 C 265.296875 126.53125 267.128906 125.824219 268.980469 125.164062 C 270.828125 124.503906 272.691406 123.886719 274.570312 123.316406 C 276.449219 122.746094 278.34375 122.222656 280.246094 121.746094 C 282.152344 121.269531 284.070312 120.839844 285.996094 120.453125 C 287.921875 120.070312 289.855469 119.734375 291.796875 119.449219 C 293.742188 119.160156 295.6875 118.917969 297.644531 118.726562 C 299.597656 118.535156 301.554688 118.390625 303.515625 118.292969 C 305.480469 118.195312 307.441406 118.148438 309.40625 118.148438 C 311.371094 118.148438 313.332031 118.195312 315.292969 118.292969 C 317.253906 118.390625 319.214844 118.535156 321.167969 118.726562 C 323.121094 118.917969 325.070312 119.160156 327.011719 119.449219 C 328.957031 119.734375 330.890625 120.070312 332.816406 120.453125 C 334.742188 120.839844 336.65625 121.269531 338.5625 121.746094 C 340.46875 122.222656 342.359375 122.746094 344.238281 123.316406 C 346.117188 123.886719 347.984375 124.503906 349.832031 125.164062 C 351.679688 125.824219 353.511719 126.53125 355.328125 127.285156 C 357.140625 128.035156 358.9375 128.832031 360.710938 129.671875 C 362.488281 130.511719 364.242188 131.394531 365.972656 132.320312 C 367.703125 133.246094 369.414062 134.210938 371.097656 135.222656 C 372.78125 136.230469 374.441406 137.28125 376.074219 138.371094 C 377.707031 139.464844 379.3125 140.59375 380.890625 141.765625 C 382.464844 142.933594 384.015625 144.140625 385.53125 145.386719 C 387.050781 146.632812 388.539062 147.914062 389.992188 149.234375 C 391.449219 150.554688 392.871094 151.90625 394.257812 153.296875 C 395.648438 154.683594 397 156.105469 398.320312 157.5625 C 399.636719 159.015625 400.921875 160.503906 402.167969 162.023438 C 403.414062 163.539062 404.621094 165.085938 405.789062 166.664062 C 406.960938 168.242188 408.089844 169.847656 409.183594 171.480469 C 410.273438 173.113281 411.324219 174.773438 412.332031 176.457031 C 413.34375 178.140625 414.308594 179.847656 415.234375 181.582031 C 416.160156 183.3125 417.042969 185.066406 417.882812 186.84375 C 418.722656 188.617188 419.519531 190.414062 420.269531 192.226562 C 421.023438 194.042969 421.730469 195.875 422.390625 197.722656 C 423.050781 199.570312 423.667969 201.433594 424.238281 203.316406 C 424.808594 205.195312 425.332031 207.085938 425.808594 208.992188 C 426.285156 210.894531 426.714844 212.8125 427.101562 214.738281 C 427.484375 216.664062 427.820312 218.597656 428.105469 220.542969 C 428.394531 222.484375 428.636719 224.433594 428.828125 226.386719 C 429.019531 228.339844 429.164062 230.300781 429.261719 232.261719 C 429.355469 234.222656 429.40625 236.183594 429.40625 238.148438 Z M 429.40625 238.148438 " fill-opacity="1" fill-rule="nonzero"/></g><g transform="matrix(1, 0, 0, 1, 49, 433)"><g clip-path="url(#0fd8935165)"><g fill="#000000" fill-opacity="0.302"><g transform="translate(4.599854, 116.541175)"><g><path d="M 59.609375 -44.671875 C 60.015625 -42.117188 59.5 -39.851562 58.0625 -37.875 C 56.625 -35.90625 54.546875 -34.46875 51.828125 -33.5625 C 50.015625 -32.988281 48.160156 -32.597656 46.265625 -32.390625 C 44.378906 -32.179688 42.613281 -32.039062 40.96875 -31.96875 C 39.320312 -31.882812 37.675781 -31.84375 36.03125 -31.84375 C 34.382812 -31.84375 32.738281 -31.882812 31.09375 -31.96875 C 30.269531 -31.96875 29.46875 -31.96875 28.6875 -31.96875 C 27.90625 -31.96875 27.101562 -31.96875 26.28125 -31.96875 C 26.039062 -31.96875 25.671875 -31.84375 25.171875 -31.59375 C 24.921875 -31.425781 24.675781 -31.34375 24.4375 -31.34375 L 23.6875 -30.96875 L 23.6875 -30.109375 C 23.6875 -29.535156 23.6875 -29 23.6875 -28.5 C 23.6875 -28.007812 23.6875 -27.476562 23.6875 -26.90625 C 23.769531 -25.75 23.8125 -24.53125 23.8125 -23.25 C 23.8125 -21.976562 23.769531 -20.726562 23.6875 -19.5 L 23.578125 -18.265625 C 23.410156 -16.203125 23.222656 -14.144531 23.015625 -12.09375 C 22.804688 -10.039062 22.457031 -8.023438 21.96875 -6.046875 C 21.46875 -3.992188 20.414062 -2.328125 18.8125 -1.046875 C 17.207031 0.222656 15.503906 0.773438 13.703125 0.609375 C 9.910156 0.367188 7.601562 -2.21875 6.78125 -7.15625 C 6.125 -11.519531 5.796875 -15.46875 5.796875 -19 C 5.878906 -24.351562 5.984375 -29.679688 6.109375 -34.984375 C 6.234375 -40.296875 6.335938 -45.625 6.421875 -50.96875 C 6.503906 -55 6.582031 -59.050781 6.65625 -63.125 C 6.738281 -67.195312 6.820312 -71.25 6.90625 -75.28125 C 6.90625 -77.164062 6.492188 -78.929688 5.671875 -80.578125 C 4.441406 -83.128906 4.195312 -85.394531 4.9375 -87.375 C 5.59375 -89.101562 6.988281 -90.378906 9.125 -91.203125 C 13.820312 -93.171875 18.144531 -94.363281 22.09375 -94.78125 C 24.476562 -94.9375 27.085938 -95.117188 29.921875 -95.328125 C 32.765625 -95.535156 35.75 -95.640625 38.875 -95.640625 C 41.34375 -95.640625 43.644531 -95.554688 45.78125 -95.390625 C 49.5625 -95.140625 52.566406 -93.742188 54.796875 -91.203125 C 56.441406 -89.222656 57.179688 -87.082031 57.015625 -84.78125 C 56.765625 -82.226562 55.445312 -80.148438 53.0625 -78.546875 C 50.675781 -76.941406 47.632812 -76.222656 43.9375 -76.390625 C 41.707031 -76.390625 39.441406 -76.390625 37.140625 -76.390625 C 34.835938 -76.390625 32.492188 -76.390625 30.109375 -76.390625 L 22.34375 -76.390625 L 23.453125 -51.34375 L 24.921875 -51.453125 C 25.503906 -51.535156 26.082031 -51.597656 26.65625 -51.640625 C 27.226562 -51.679688 27.804688 -51.742188 28.390625 -51.828125 C 29.703125 -51.992188 30.972656 -52.140625 32.203125 -52.265625 C 33.441406 -52.390625 34.675781 -52.492188 35.90625 -52.578125 L 37.890625 -52.6875 C 39.691406 -52.769531 41.5625 -52.851562 43.5 -52.9375 C 45.4375 -53.019531 47.304688 -53.019531 49.109375 -52.9375 C 51.910156 -52.769531 54.273438 -51.925781 56.203125 -50.40625 C 58.140625 -48.882812 59.273438 -46.972656 59.609375 -44.671875 Z M 59.609375 -44.671875 "/></g></g></g><g fill="#000000" fill-opacity="0.302"><g transform="translate(68.888839, 116.541175)"><g><path d="M 80.34375 -86.625 C 81.65625 -83.332031 82.1875 -80.660156 81.9375 -78.609375 C 79.800781 -61.910156 77.664062 -47.019531 75.53125 -33.9375 C 75.113281 -31.800781 74.472656 -29.660156 73.609375 -27.515625 C 72.742188 -25.378906 71.816406 -23.320312 70.828125 -21.34375 C 66.554688 -12.539062 60.0625 -6.863281 51.34375 -4.3125 C 42.53125 -1.769531 33.890625 -3.128906 25.421875 -8.390625 C 12.585938 -16.367188 5.800781 -28.335938 5.0625 -44.296875 C 4.976562 -45.453125 4.957031 -46.601562 5 -47.75 C 5.039062 -48.90625 5.0625 -50.0625 5.0625 -51.21875 C 5.0625 -51.789062 5.0625 -52.34375 5.0625 -52.875 C 5.0625 -53.414062 5.0625 -53.929688 5.0625 -54.421875 L 5.0625 -55.78125 L 4.5625 -55.78125 L 4.9375 -60.09375 C 5.1875 -63.144531 5.429688 -66.191406 5.671875 -69.234375 C 5.921875 -72.273438 6.210938 -75.316406 6.546875 -78.359375 C 6.617188 -79.515625 6.90625 -80.875 7.40625 -82.4375 C 8.632812 -86.132812 10.976562 -88.109375 14.4375 -88.359375 C 16.082031 -88.441406 17.582031 -87.96875 18.9375 -86.9375 C 20.300781 -85.90625 21.226562 -84.488281 21.71875 -82.6875 C 22.625 -79.800781 23.28125 -76.257812 23.6875 -72.0625 C 23.9375 -69.269531 24.179688 -66.472656 24.421875 -63.671875 C 24.671875 -60.878906 24.921875 -58.082031 25.171875 -55.28125 C 25.335938 -53.550781 25.503906 -51.78125 25.671875 -49.96875 C 25.835938 -48.164062 26 -46.359375 26.15625 -44.546875 C 26.894531 -36.484375 30.4375 -30.351562 36.78125 -26.15625 C 40.894531 -23.445312 44.632812 -22.707031 48 -23.9375 C 51.050781 -25.09375 53.148438 -27.6875 54.296875 -31.71875 C 55.453125 -35.832031 56.398438 -39.984375 57.140625 -44.171875 C 57.878906 -48.367188 58.535156 -52.523438 59.109375 -56.640625 L 59.484375 -58.625 C 59.734375 -60.425781 59.9375 -62.253906 60.09375 -64.109375 C 60.257812 -65.960938 60.425781 -67.789062 60.59375 -69.59375 C 60.675781 -71.082031 60.796875 -72.628906 60.953125 -74.234375 C 61.117188 -75.835938 61.285156 -77.378906 61.453125 -78.859375 C 61.867188 -81.984375 62.734375 -84.820312 64.046875 -87.375 C 65.773438 -90.664062 68.613281 -92.1875 72.5625 -91.9375 C 76.34375 -91.769531 78.9375 -90 80.34375 -86.625 Z M 80.34375 -86.625 "/></g></g></g><g fill="#000000" fill-opacity="0.302"><g transform="translate(155.512384, 116.541175)"><g><path d="M 92.4375 -88.359375 C 92.925781 -85.890625 93.171875 -83.253906 93.171875 -80.453125 L 92.921875 -70.34375 C 92.753906 -62.53125 92.585938 -54.609375 92.421875 -46.578125 C 92.265625 -38.554688 92.019531 -30.554688 91.6875 -22.578125 C 91.445312 -14.023438 88.9375 -8.429688 84.15625 -5.796875 C 79.550781 -3.242188 73.628906 -4.023438 66.390625 -8.140625 C 62.691406 -10.285156 59.296875 -12.859375 56.203125 -15.859375 C 53.117188 -18.859375 50.59375 -21.550781 48.625 -23.9375 C 46.15625 -26.738281 43.804688 -29.679688 41.578125 -32.765625 C 39.359375 -35.847656 37.179688 -38.910156 35.046875 -41.953125 C 34.140625 -43.191406 33.253906 -44.425781 32.390625 -45.65625 C 31.523438 -46.894531 30.640625 -48.128906 29.734375 -49.359375 L 29.25 -50.21875 C 28.75 -50.882812 28.210938 -51.566406 27.640625 -52.265625 C 27.066406 -52.960938 26.328125 -53.640625 25.421875 -54.296875 L 23.328125 -55.90625 L 23.328125 -51.953125 C 23.328125 -51.460938 23.328125 -50.988281 23.328125 -50.53125 C 23.328125 -50.082031 23.328125 -49.609375 23.328125 -49.109375 L 22.953125 -41.09375 C 22.785156 -35.988281 22.617188 -30.820312 22.453125 -25.59375 C 22.296875 -20.375 22.09375 -15.21875 21.84375 -10.125 C 21.757812 -8.226562 21.222656 -6.332031 20.234375 -4.4375 C 19.003906 -1.882812 17.28125 -0.570312 15.0625 -0.5 C 12.914062 -0.332031 11.144531 -1.441406 9.75 -3.828125 C 8.4375 -5.796875 7.695312 -7.726562 7.53125 -9.625 C 5.96875 -22.539062 5.019531 -34.425781 4.6875 -45.28125 C 4.363281 -56.144531 4.648438 -66.554688 5.546875 -76.515625 C 5.628906 -78.242188 6.082031 -80.050781 6.90625 -81.9375 C 8.226562 -85.3125 10.410156 -87.535156 13.453125 -88.609375 C 14.597656 -88.929688 15.707031 -89.09375 16.78125 -89.09375 C 18.757812 -89.09375 20.648438 -88.5625 22.453125 -87.5 C 25.085938 -86.019531 27.3125 -84.125 29.125 -81.8125 C 31.175781 -79.1875 33.226562 -76.515625 35.28125 -73.796875 C 37.34375 -71.078125 39.363281 -68.40625 41.34375 -65.78125 C 42.488281 -64.289062 43.617188 -62.804688 44.734375 -61.328125 C 45.847656 -59.847656 46.976562 -58.367188 48.125 -56.890625 C 50.101562 -54.253906 52.078125 -51.660156 54.046875 -49.109375 C 56.023438 -46.566406 58 -43.976562 59.96875 -41.34375 L 66.015625 -33.5625 L 69.234375 -34.796875 L 69.359375 -37.015625 C 69.441406 -37.515625 69.484375 -38.007812 69.484375 -38.5 C 69.484375 -39 69.519531 -39.492188 69.59375 -39.984375 C 69.59375 -41.878906 69.632812 -43.769531 69.71875 -45.65625 C 69.800781 -47.550781 69.84375 -49.445312 69.84375 -51.34375 C 70.007812 -56.03125 70.175781 -60.757812 70.34375 -65.53125 C 70.507812 -70.300781 70.671875 -75.070312 70.828125 -79.84375 C 71.078125 -83.46875 71.863281 -87.003906 73.1875 -90.453125 C 74.082031 -92.671875 75.5 -94.359375 77.4375 -95.515625 C 79.375 -96.671875 81.492188 -97.125 83.796875 -96.875 C 85.929688 -96.625 87.800781 -95.71875 89.40625 -94.15625 C 91.007812 -92.59375 92.019531 -90.660156 92.4375 -88.359375 Z M 92.4375 -88.359375 "/></g></g></g><g fill="#000000" fill-opacity="0.502"><g transform="translate(3.019617, 115.306575)"><g><path d="M 59.609375 -44.671875 C 60.015625 -42.117188 59.5 -39.851562 58.0625 -37.875 C 56.625 -35.90625 54.546875 -34.46875 51.828125 -33.5625 C 50.015625 -32.988281 48.160156 -32.597656 46.265625 -32.390625 C 44.378906 -32.179688 42.613281 -32.039062 40.96875 -31.96875 C 39.320312 -31.882812 37.675781 -31.84375 36.03125 -31.84375 C 34.382812 -31.84375 32.738281 -31.882812 31.09375 -31.96875 C 30.269531 -31.96875 29.46875 -31.96875 28.6875 -31.96875 C 27.90625 -31.96875 27.101562 -31.96875 26.28125 -31.96875 C 26.039062 -31.96875 25.671875 -31.84375 25.171875 -31.59375 C 24.921875 -31.425781 24.675781 -31.34375 24.4375 -31.34375 L 23.6875 -30.96875 L 23.6875 -30.109375 C 23.6875 -29.535156 23.6875 -29 23.6875 -28.5 C 23.6875 -28.007812 23.6875 -27.476562 23.6875 -26.90625 C 23.769531 -25.75 23.8125 -24.53125 23.8125 -23.25 C 23.8125 -21.976562 23.769531 -20.726562 23.6875 -19.5 L 23.578125 -18.265625 C 23.410156 -16.203125 23.222656 -14.144531 23.015625 -12.09375 C 22.804688 -10.039062 22.457031 -8.023438 21.96875 -6.046875 C 21.46875 -3.992188 20.414062 -2.328125 18.8125 -1.046875 C 17.207031 0.222656 15.503906 0.773438 13.703125 0.609375 C 9.910156 0.367188 7.601562 -2.21875 6.78125 -7.15625 C 6.125 -11.519531 5.796875 -15.46875 5.796875 -19 C 5.878906 -24.351562 5.984375 -29.679688 6.109375 -34.984375 C 6.234375 -40.296875 6.335938 -45.625 6.421875 -50.96875 C 6.503906 -55 6.582031 -59.050781 6.65625 -63.125 C 6.738281 -67.195312 6.820312 -71.25 6.90625 -75.28125 C 6.90625 -77.164062 6.492188 -78.929688 5.671875 -80.578125 C 4.441406 -83.128906 4.195312 -85.394531 4.9375 -87.375 C 5.59375 -89.101562 6.988281 -90.378906 9.125 -91.203125 C 13.820312 -93.171875 18.144531 -94.363281 22.09375 -94.78125 C 24.476562 -94.9375 27.085938 -95.117188 29.921875 -95.328125 C 32.765625 -95.535156 35.75 -95.640625 38.875 -95.640625 C 41.34375 -95.640625 43.644531 -95.554688 45.78125 -95.390625 C 49.5625 -95.140625 52.566406 -93.742188 54.796875 -91.203125 C 56.441406 -89.222656 57.179688 -87.082031 57.015625 -84.78125 C 56.765625 -82.226562 55.445312 -80.148438 53.0625 -78.546875 C 50.675781 -76.941406 47.632812 -76.222656 43.9375 -76.390625 C 41.707031 -76.390625 39.441406 -76.390625 37.140625 -76.390625 C 34.835938 -76.390625 32.492188 -76.390625 30.109375 -76.390625 L 22.34375 -76.390625 L 23.453125 -51.34375 L 24.921875 -51.453125 C 25.503906 -51.535156 26.082031 -51.597656 26.65625 -51.640625 C 27.226562 -51.679688 27.804688 -51.742188 28.390625 -51.828125 C 29.703125 -51.992188 30.972656 -52.140625 32.203125 -52.265625 C 33.441406 -52.390625 34.675781 -52.492188 35.90625 -52.578125 L 37.890625 -52.6875 C 39.691406 -52.769531 41.5625 -52.851562 43.5 -52.9375 C 45.4375 -53.019531 47.304688 -53.019531 49.109375 -52.9375 C 51.910156 -52.769531 54.273438 -51.925781 56.203125 -50.40625 C 58.140625 -48.882812 59.273438 -46.972656 59.609375 -44.671875 Z M 59.609375 -44.671875 "/></g></g></g><g fill="#000000" fill-opacity="0.502"><g transform="translate(67.308602, 115.306575)"><g><path d="M 80.34375 -86.625 C 81.65625 -83.332031 82.1875 -80.660156 81.9375 -78.609375 C 79.800781 -61.910156 77.664062 -47.019531 75.53125 -33.9375 C 75.113281 -31.800781 74.472656 -29.660156 73.609375 -27.515625 C 72.742188 -25.378906 71.816406 -23.320312 70.828125 -21.34375 C 66.554688 -12.539062 60.0625 -6.863281 51.34375 -4.3125 C 42.53125 -1.769531 33.890625 -3.128906 25.421875 -8.390625 C 12.585938 -16.367188 5.800781 -28.335938 5.0625 -44.296875 C 4.976562 -45.453125 4.957031 -46.601562 5 -47.75 C 5.039062 -48.90625 5.0625 -50.0625 5.0625 -51.21875 C 5.0625 -51.789062 5.0625 -52.34375 5.0625 -52.875 C 5.0625 -53.414062 5.0625 -53.929688 5.0625 -54.421875 L 5.0625 -55.78125 L 4.5625 -55.78125 L 4.9375 -60.09375 C 5.1875 -63.144531 5.429688 -66.191406 5.671875 -69.234375 C 5.921875 -72.273438 6.210938 -75.316406 6.546875 -78.359375 C 6.617188 -79.515625 6.90625 -80.875 7.40625 -82.4375 C 8.632812 -86.132812 10.976562 -88.109375 14.4375 -88.359375 C 16.082031 -88.441406 17.582031 -87.96875 18.9375 -86.9375 C 20.300781 -85.90625 21.226562 -84.488281 21.71875 -82.6875 C 22.625 -79.800781 23.28125 -76.257812 23.6875 -72.0625 C 23.9375 -69.269531 24.179688 -66.472656 24.421875 -63.671875 C 24.671875 -60.878906 24.921875 -58.082031 25.171875 -55.28125 C 25.335938 -53.550781 25.503906 -51.78125 25.671875 -49.96875 C 25.835938 -48.164062 26 -46.359375 26.15625 -44.546875 C 26.894531 -36.484375 30.4375 -30.351562 36.78125 -26.15625 C 40.894531 -23.445312 44.632812 -22.707031 48 -23.9375 C 51.050781 -25.09375 53.148438 -27.6875 54.296875 -31.71875 C 55.453125 -35.832031 56.398438 -39.984375 57.140625 -44.171875 C 57.878906 -48.367188 58.535156 -52.523438 59.109375 -56.640625 L 59.484375 -58.625 C 59.734375 -60.425781 59.9375 -62.253906 60.09375 -64.109375 C 60.257812 -65.960938 60.425781 -67.789062 60.59375 -69.59375 C 60.675781 -71.082031 60.796875 -72.628906 60.953125 -74.234375 C 61.117188 -75.835938 61.285156 -77.378906 61.453125 -78.859375 C 61.867188 -81.984375 62.734375 -84.820312 64.046875 -87.375 C 65.773438 -90.664062 68.613281 -92.1875 72.5625 -91.9375 C 76.34375 -91.769531 78.9375 -90 80.34375 -86.625 Z M 80.34375 -86.625 "/></g></g></g><g fill="#000000" fill-opacity="0.502"><g transform="translate(153.932147, 115.306575)"><g><path d="M 92.4375 -88.359375 C 92.925781 -85.890625 93.171875 -83.253906 93.171875 -80.453125 L 92.921875 -70.34375 C 92.753906 -62.53125 92.585938 -54.609375 92.421875 -46.578125 C 92.265625 -38.554688 92.019531 -30.554688 91.6875 -22.578125 C 91.445312 -14.023438 88.9375 -8.429688 84.15625 -5.796875 C 79.550781 -3.242188 73.628906 -4.023438 66.390625 -8.140625 C 62.691406 -10.285156 59.296875 -12.859375 56.203125 -15.859375 C 53.117188 -18.859375 50.59375 -21.550781 48.625 -23.9375 C 46.15625 -26.738281 43.804688 -29.679688 41.578125 -32.765625 C 39.359375 -35.847656 37.179688 -38.910156 35.046875 -41.953125 C 34.140625 -43.191406 33.253906 -44.425781 32.390625 -45.65625 C 31.523438 -46.894531 30.640625 -48.128906 29.734375 -49.359375 L 29.25 -50.21875 C 28.75 -50.882812 28.210938 -51.566406 27.640625 -52.265625 C 27.066406 -52.960938 26.328125 -53.640625 25.421875 -54.296875 L 23.328125 -55.90625 L 23.328125 -51.953125 C 23.328125 -51.460938 23.328125 -50.988281 23.328125 -50.53125 C 23.328125 -50.082031 23.328125 -49.609375 23.328125 -49.109375 L 22.953125 -41.09375 C 22.785156 -35.988281 22.617188 -30.820312 22.453125 -25.59375 C 22.296875 -20.375 22.09375 -15.21875 21.84375 -10.125 C 21.757812 -8.226562 21.222656 -6.332031 20.234375 -4.4375 C 19.003906 -1.882812 17.28125 -0.570312 15.0625 -0.5 C 12.914062 -0.332031 11.144531 -1.441406 9.75 -3.828125 C 8.4375 -5.796875 7.695312 -7.726562 7.53125 -9.625 C 5.96875 -22.539062 5.019531 -34.425781 4.6875 -45.28125 C 4.363281 -56.144531 4.648438 -66.554688 5.546875 -76.515625 C 5.628906 -78.242188 6.082031 -80.050781 6.90625 -81.9375 C 8.226562 -85.3125 10.410156 -87.535156 13.453125 -88.609375 C 14.597656 -88.929688 15.707031 -89.09375 16.78125 -89.09375 C 18.757812 -89.09375 20.648438 -88.5625 22.453125 -87.5 C 25.085938 -86.019531 27.3125 -84.125 29.125 -81.8125 C 31.175781 -79.1875 33.226562 -76.515625 35.28125 -73.796875 C 37.34375 -71.078125 39.363281 -68.40625 41.34375 -65.78125 C 42.488281 -64.289062 43.617188 -62.804688 44.734375 -61.328125 C 45.847656 -59.847656 46.976562 -58.367188 48.125 -56.890625 C 50.101562 -54.253906 52.078125 -51.660156 54.046875 -49.109375 C 56.023438 -46.566406 58 -43.976562 59.96875 -41.34375 L 66.015625 -33.5625 L 69.234375 -34.796875 L 69.359375 -37.015625 C 69.441406 -37.515625 69.484375 -38.007812 69.484375 -38.5 C 69.484375 -39 69.519531 -39.492188 69.59375 -39.984375 C 69.59375 -41.878906 69.632812 -43.769531 69.71875 -45.65625 C 69.800781 -47.550781 69.84375 -49.445312 69.84375 -51.34375 C 70.007812 -56.03125 70.175781 -60.757812 70.34375 -65.53125 C 70.507812 -70.300781 70.671875 -75.070312 70.828125 -79.84375 C 71.078125 -83.46875 71.863281 -87.003906 73.1875 -90.453125 C 74.082031 -92.671875 75.5 -94.359375 77.4375 -95.515625 C 79.375 -96.671875 81.492188 -97.125 83.796875 -96.875 C 85.929688 -96.625 87.800781 -95.71875 89.40625 -94.15625 C 91.007812 -92.59375 92.019531 -90.660156 92.4375 -88.359375 Z M 92.4375 -88.359375 "/></g></g></g><g fill="#000000" fill-opacity="0.302"><g transform="translate(253.371959, 116.541175)"><g><path d="M 59.234375 -18.140625 C 60.304688 -15.421875 59.851562 -12.625 57.875 -9.75 C 57.707031 -9.5 57.519531 -9.25 57.3125 -9 C 57.113281 -8.757812 56.929688 -8.554688 56.765625 -8.390625 C 43.847656 0.984375 31.507812 3.65625 19.75 -0.375 C 16.375 -1.519531 13.65625 -3.097656 11.59375 -5.109375 C 9.539062 -7.128906 8 -9.332031 6.96875 -11.71875 C 5.945312 -14.101562 5.289062 -16.445312 5 -18.75 C 4.707031 -21.0625 4.5625 -23.117188 4.5625 -24.921875 C 4.8125 -32.578125 5.242188 -40.289062 5.859375 -48.0625 C 6.472656 -55.84375 7.148438 -63.472656 7.890625 -70.953125 L 8.265625 -75.15625 C 8.515625 -77.945312 8.945312 -80.738281 9.5625 -83.53125 C 10.175781 -86.332031 10.9375 -89.335938 11.84375 -92.546875 C 13.082031 -97.328125 15.59375 -99.71875 19.375 -99.71875 C 19.625 -99.71875 19.828125 -99.71875 19.984375 -99.71875 C 22.046875 -99.550781 23.710938 -98.722656 24.984375 -97.234375 C 26.265625 -95.753906 26.988281 -93.820312 27.15625 -91.4375 C 27.476562 -87.40625 27.703125 -83.375 27.828125 -79.34375 C 27.953125 -75.3125 28.097656 -71.488281 28.265625 -67.875 C 28.265625 -66.394531 28.285156 -64.992188 28.328125 -63.671875 C 28.367188 -62.359375 28.425781 -61.085938 28.5 -59.859375 C 28.5 -58.046875 28.5 -56.273438 28.5 -54.546875 C 28.5 -52.816406 28.5 -51.128906 28.5 -49.484375 C 28.5 -45.785156 28.5 -42.1875 28.5 -38.6875 C 28.5 -35.1875 28.5 -31.753906 28.5 -28.390625 C 28.582031 -26.984375 28.707031 -25.828125 28.875 -24.921875 C 29.039062 -24.023438 29.453125 -23.328125 30.109375 -22.828125 C 30.765625 -22.171875 31.609375 -21.820312 32.640625 -21.78125 C 33.671875 -21.738281 34.800781 -21.800781 36.03125 -21.96875 C 36.9375 -22.050781 37.820312 -22.148438 38.6875 -22.265625 C 39.550781 -22.390625 40.4375 -22.492188 41.34375 -22.578125 C 42.25 -22.742188 43.171875 -22.890625 44.109375 -23.015625 C 45.054688 -23.140625 45.984375 -23.242188 46.890625 -23.328125 C 49.273438 -23.492188 51.289062 -23.410156 52.9375 -23.078125 C 56.144531 -22.335938 58.242188 -20.691406 59.234375 -18.140625 Z M 59.234375 -18.140625 "/></g></g></g><g fill="#000000" fill-opacity="0.302"><g transform="translate(317.660944, 116.541175)"><g><path d="M 63.4375 -24.6875 C 64.257812 -20.976562 64.296875 -17.867188 63.546875 -15.359375 C 62.804688 -12.847656 61.242188 -11.101562 58.859375 -10.125 C 56.316406 -9.050781 53.8125 -9.066406 51.34375 -10.171875 C 48.875 -11.285156 46.566406 -13.40625 44.421875 -16.53125 C 44.253906 -16.78125 44.046875 -17.046875 43.796875 -17.328125 C 43.554688 -17.617188 43.3125 -17.972656 43.0625 -18.390625 C 42.40625 -17.972656 41.8125 -17.535156 41.28125 -17.078125 C 40.75 -16.628906 40.148438 -16.242188 39.484375 -15.921875 C 37.765625 -15.097656 36.039062 -14.210938 34.3125 -13.265625 C 32.582031 -12.316406 30.769531 -11.640625 28.875 -11.234375 C 24.269531 -10.078125 20.050781 -10.28125 16.21875 -11.84375 C 12.394531 -13.40625 9.414062 -15.953125 7.28125 -19.484375 C 5.144531 -23.023438 4.28125 -27.1875 4.6875 -31.96875 C 4.9375 -35.832031 5.941406 -39.613281 7.703125 -43.3125 C 9.472656 -47.019531 11.738281 -50.457031 14.5 -53.625 C 17.257812 -56.789062 20.363281 -59.441406 23.8125 -61.578125 C 27.269531 -63.710938 30.8125 -65.070312 34.4375 -65.65625 C 38.539062 -66.394531 42.257812 -65.960938 45.59375 -64.359375 C 48.925781 -62.753906 52.113281 -60.800781 55.15625 -58.5 C 56.144531 -57.757812 56.863281 -56.601562 57.3125 -55.03125 C 57.769531 -53.46875 58.125 -51.988281 58.375 -50.59375 C 59.363281 -46.3125 60.226562 -41.988281 60.96875 -37.625 C 61.707031 -33.269531 62.53125 -28.957031 63.4375 -24.6875 Z M 27.765625 -29.125 C 31.546875 -30.601562 34.421875 -33.359375 36.390625 -37.390625 C 38.367188 -41.421875 38.945312 -45.78125 38.125 -50.46875 C 34.019531 -48.820312 30.789062 -46.5 28.4375 -43.5 C 26.09375 -40.5 24.222656 -37.066406 22.828125 -33.203125 C 22.660156 -32.617188 22.578125 -31.832031 22.578125 -30.84375 C 22.578125 -29.863281 22.742188 -29.289062 23.078125 -29.125 C 23.734375 -28.789062 24.492188 -28.625 25.359375 -28.625 C 26.222656 -28.625 27.023438 -28.789062 27.765625 -29.125 Z M 27.765625 -29.125 "/></g></g></g><g fill="#000000" fill-opacity="0.302"><g transform="translate(386.392163, 116.541175)"><g><path d="M 56.890625 -53.4375 C 60.835938 -48.082031 63.242188 -42.398438 64.109375 -36.390625 C 64.972656 -30.390625 64.910156 -24.222656 63.921875 -17.890625 C 63.515625 -15.421875 62.488281 -13.488281 60.84375 -12.09375 C 59.195312 -10.695312 57.34375 -9.957031 55.28125 -9.875 C 53.144531 -9.789062 51.148438 -10.363281 49.296875 -11.59375 C 47.453125 -12.832031 46.238281 -14.6875 45.65625 -17.15625 C 44.914062 -20.03125 44.378906 -22.945312 44.046875 -25.90625 C 43.722656 -28.875 43.359375 -31.835938 42.953125 -34.796875 C 42.785156 -35.867188 42.597656 -36.976562 42.390625 -38.125 C 42.179688 -39.28125 41.957031 -40.640625 41.71875 -42.203125 C 40.8125 -41.460938 40.023438 -40.84375 39.359375 -40.34375 C 38.703125 -39.851562 38.171875 -39.320312 37.765625 -38.75 C 35.046875 -35.289062 32.597656 -31.691406 30.421875 -27.953125 C 28.242188 -24.210938 26.617188 -20.160156 25.546875 -15.796875 C 24.804688 -12.671875 23.382812 -10.304688 21.28125 -8.703125 C 19.1875 -7.097656 16.78125 -6.414062 14.0625 -6.65625 C 11.351562 -6.988281 9.070312 -8.160156 7.21875 -10.171875 C 5.363281 -12.191406 4.476562 -14.804688 4.5625 -18.015625 C 4.726562 -23.691406 4.992188 -29.347656 5.359375 -34.984375 C 5.734375 -40.617188 6.164062 -46.273438 6.65625 -51.953125 C 6.820312 -54.015625 7.359375 -55.882812 8.265625 -57.5625 C 9.171875 -59.25 10.898438 -60.132812 13.453125 -60.21875 C 15.753906 -60.300781 17.4375 -59.601562 18.5 -58.125 C 19.570312 -56.644531 20.398438 -54.914062 20.984375 -52.9375 C 21.066406 -52.613281 21.1875 -52.285156 21.34375 -51.953125 C 21.507812 -51.617188 21.675781 -51.164062 21.84375 -50.59375 C 23.320312 -51.832031 24.695312 -53.046875 25.96875 -54.234375 C 27.25 -55.429688 28.546875 -56.484375 29.859375 -57.390625 C 34.554688 -60.753906 39.367188 -62.085938 44.296875 -61.390625 C 49.234375 -60.691406 53.429688 -58.039062 56.890625 -53.4375 Z M 56.890625 -53.4375 "/></g></g></g><g fill="#000000" fill-opacity="0.302"><g transform="translate(455.740354, 116.541175)"><g><path d="M 56.15625 -52.8125 C 56.476562 -45.90625 56.78125 -38.929688 57.0625 -31.890625 C 57.351562 -24.859375 57.421875 -17.890625 57.265625 -10.984375 C 57.097656 -6.046875 56.066406 -1.359375 54.171875 3.078125 C 52.285156 7.523438 49.695312 11.640625 46.40625 15.421875 C 44.019531 18.222656 41.320312 20.523438 38.3125 22.328125 C 35.3125 24.140625 31.921875 25.253906 28.140625 25.671875 C 25.753906 25.992188 23.550781 25.804688 21.53125 25.109375 C 19.519531 24.410156 17.8125 22.992188 16.40625 20.859375 C 14.6875 18.054688 14.566406 15.296875 16.046875 12.578125 C 17.523438 9.867188 20.195312 7.859375 24.0625 6.546875 C 26.78125 5.554688 29.351562 3.828125 31.78125 1.359375 C 34.207031 -1.109375 36.203125 -3.945312 37.765625 -7.15625 C 39.328125 -10.363281 40.148438 -13.488281 40.234375 -16.53125 C 39.898438 -16.445312 39.609375 -16.363281 39.359375 -16.28125 C 39.117188 -16.207031 38.875 -16.085938 38.625 -15.921875 C 34.34375 -13.285156 30.144531 -12.128906 26.03125 -12.453125 C 21.925781 -12.785156 17.9375 -14.476562 14.0625 -17.53125 C 10.03125 -20.65625 7.253906 -24.519531 5.734375 -29.125 C 4.210938 -33.726562 4.148438 -38.375 5.546875 -43.0625 C 7.359375 -49.070312 10.300781 -53.882812 14.375 -57.5 C 18.445312 -61.125 23.40625 -63.757812 29.25 -65.40625 C 34.351562 -66.882812 39.207031 -66.101562 43.8125 -63.0625 C 44.300781 -62.726562 44.832031 -62.4375 45.40625 -62.1875 C 45.988281 -61.945312 46.609375 -61.742188 47.265625 -61.578125 C 50.054688 -61.085938 52.191406 -60.203125 53.671875 -58.921875 C 55.160156 -57.648438 55.988281 -55.613281 56.15625 -52.8125 Z M 29.859375 -32.453125 C 32.492188 -34.347656 34.675781 -36.53125 36.40625 -39 C 38.132812 -41.46875 39.203125 -44.390625 39.609375 -47.765625 C 38.046875 -48.171875 36.378906 -48.082031 34.609375 -47.5 C 32.847656 -46.925781 31.203125 -46.023438 29.671875 -44.796875 C 28.148438 -43.566406 26.914062 -42.1875 25.96875 -40.65625 C 25.03125 -39.132812 24.640625 -37.632812 24.796875 -36.15625 C 24.960938 -34.675781 25.582031 -33.523438 26.65625 -32.703125 C 27.726562 -31.878906 28.796875 -31.796875 29.859375 -32.453125 Z M 29.859375 -32.453125 "/></g></g></g><g fill="#000000" fill-opacity="0.502"><g transform="translate(251.791722, 115.306575)"><g><path d="M 59.234375 -18.140625 C 60.304688 -15.421875 59.851562 -12.625 57.875 -9.75 C 57.707031 -9.5 57.519531 -9.25 57.3125 -9 C 57.113281 -8.757812 56.929688 -8.554688 56.765625 -8.390625 C 43.847656 0.984375 31.507812 3.65625 19.75 -0.375 C 16.375 -1.519531 13.65625 -3.097656 11.59375 -5.109375 C 9.539062 -7.128906 8 -9.332031 6.96875 -11.71875 C 5.945312 -14.101562 5.289062 -16.445312 5 -18.75 C 4.707031 -21.0625 4.5625 -23.117188 4.5625 -24.921875 C 4.8125 -32.578125 5.242188 -40.289062 5.859375 -48.0625 C 6.472656 -55.84375 7.148438 -63.472656 7.890625 -70.953125 L 8.265625 -75.15625 C 8.515625 -77.945312 8.945312 -80.738281 9.5625 -83.53125 C 10.175781 -86.332031 10.9375 -89.335938 11.84375 -92.546875 C 13.082031 -97.328125 15.59375 -99.71875 19.375 -99.71875 C 19.625 -99.71875 19.828125 -99.71875 19.984375 -99.71875 C 22.046875 -99.550781 23.710938 -98.722656 24.984375 -97.234375 C 26.265625 -95.753906 26.988281 -93.820312 27.15625 -91.4375 C 27.476562 -87.40625 27.703125 -83.375 27.828125 -79.34375 C 27.953125 -75.3125 28.097656 -71.488281 28.265625 -67.875 C 28.265625 -66.394531 28.285156 -64.992188 28.328125 -63.671875 C 28.367188 -62.359375 28.425781 -61.085938 28.5 -59.859375 C 28.5 -58.046875 28.5 -56.273438 28.5 -54.546875 C 28.5 -52.816406 28.5 -51.128906 28.5 -49.484375 C 28.5 -45.785156 28.5 -42.1875 28.5 -38.6875 C 28.5 -35.1875 28.5 -31.753906 28.5 -28.390625 C 28.582031 -26.984375 28.707031 -25.828125 28.875 -24.921875 C 29.039062 -24.023438 29.453125 -23.328125 30.109375 -22.828125 C 30.765625 -22.171875 31.609375 -21.820312 32.640625 -21.78125 C 33.671875 -21.738281 34.800781 -21.800781 36.03125 -21.96875 C 36.9375 -22.050781 37.820312 -22.148438 38.6875 -22.265625 C 39.550781 -22.390625 40.4375 -22.492188 41.34375 -22.578125 C 42.25 -22.742188 43.171875 -22.890625 44.109375 -23.015625 C 45.054688 -23.140625 45.984375 -23.242188 46.890625 -23.328125 C 49.273438 -23.492188 51.289062 -23.410156 52.9375 -23.078125 C 56.144531 -22.335938 58.242188 -20.691406 59.234375 -18.140625 Z M 59.234375 -18.140625 "/></g></g></g><g fill="#000000" fill-opacity="0.502"><g transform="translate(316.080708, 115.306575)"><g><path d="M 63.4375 -24.6875 C 64.257812 -20.976562 64.296875 -17.867188 63.546875 -15.359375 C 62.804688 -12.847656 61.242188 -11.101562 58.859375 -10.125 C 56.316406 -9.050781 53.8125 -9.066406 51.34375 -10.171875 C 48.875 -11.285156 46.566406 -13.40625 44.421875 -16.53125 C 44.253906 -16.78125 44.046875 -17.046875 43.796875 -17.328125 C 43.554688 -17.617188 43.3125 -17.972656 43.0625 -18.390625 C 42.40625 -17.972656 41.8125 -17.535156 41.28125 -17.078125 C 40.75 -16.628906 40.148438 -16.242188 39.484375 -15.921875 C 37.765625 -15.097656 36.039062 -14.210938 34.3125 -13.265625 C 32.582031 -12.316406 30.769531 -11.640625 28.875 -11.234375 C 24.269531 -10.078125 20.050781 -10.28125 16.21875 -11.84375 C 12.394531 -13.40625 9.414062 -15.953125 7.28125 -19.484375 C 5.144531 -23.023438 4.28125 -27.1875 4.6875 -31.96875 C 4.9375 -35.832031 5.941406 -39.613281 7.703125 -43.3125 C 9.472656 -47.019531 11.738281 -50.457031 14.5 -53.625 C 17.257812 -56.789062 20.363281 -59.441406 23.8125 -61.578125 C 27.269531 -63.710938 30.8125 -65.070312 34.4375 -65.65625 C 38.539062 -66.394531 42.257812 -65.960938 45.59375 -64.359375 C 48.925781 -62.753906 52.113281 -60.800781 55.15625 -58.5 C 56.144531 -57.757812 56.863281 -56.601562 57.3125 -55.03125 C 57.769531 -53.46875 58.125 -51.988281 58.375 -50.59375 C 59.363281 -46.3125 60.226562 -41.988281 60.96875 -37.625 C 61.707031 -33.269531 62.53125 -28.957031 63.4375 -24.6875 Z M 27.765625 -29.125 C 31.546875 -30.601562 34.421875 -33.359375 36.390625 -37.390625 C 38.367188 -41.421875 38.945312 -45.78125 38.125 -50.46875 C 34.019531 -48.820312 30.789062 -46.5 28.4375 -43.5 C 26.09375 -40.5 24.222656 -37.066406 22.828125 -33.203125 C 22.660156 -32.617188 22.578125 -31.832031 22.578125 -30.84375 C 22.578125 -29.863281 22.742188 -29.289062 23.078125 -29.125 C 23.734375 -28.789062 24.492188 -28.625 25.359375 -28.625 C 26.222656 -28.625 27.023438 -28.789062 27.765625 -29.125 Z M 27.765625 -29.125 "/></g></g></g><g fill="#000000" fill-opacity="0.502"><g transform="translate(384.811926, 115.306575)"><g><path d="M 56.890625 -53.4375 C 60.835938 -48.082031 63.242188 -42.398438 64.109375 -36.390625 C 64.972656 -30.390625 64.910156 -24.222656 63.921875 -17.890625 C 63.515625 -15.421875 62.488281 -13.488281 60.84375 -12.09375 C 59.195312 -10.695312 57.34375 -9.957031 55.28125 -9.875 C 53.144531 -9.789062 51.148438 -10.363281 49.296875 -11.59375 C 47.453125 -12.832031 46.238281 -14.6875 45.65625 -17.15625 C 44.914062 -20.03125 44.378906 -22.945312 44.046875 -25.90625 C 43.722656 -28.875 43.359375 -31.835938 42.953125 -34.796875 C 42.785156 -35.867188 42.597656 -36.976562 42.390625 -38.125 C 42.179688 -39.28125 41.957031 -40.640625 41.71875 -42.203125 C 40.8125 -41.460938 40.023438 -40.84375 39.359375 -40.34375 C 38.703125 -39.851562 38.171875 -39.320312 37.765625 -38.75 C 35.046875 -35.289062 32.597656 -31.691406 30.421875 -27.953125 C 28.242188 -24.210938 26.617188 -20.160156 25.546875 -15.796875 C 24.804688 -12.671875 23.382812 -10.304688 21.28125 -8.703125 C 19.1875 -7.097656 16.78125 -6.414062 14.0625 -6.65625 C 11.351562 -6.988281 9.070312 -8.160156 7.21875 -10.171875 C 5.363281 -12.191406 4.476562 -14.804688 4.5625 -18.015625 C 4.726562 -23.691406 4.992188 -29.347656 5.359375 -34.984375 C 5.734375 -40.617188 6.164062 -46.273438 6.65625 -51.953125 C 6.820312 -54.015625 7.359375 -55.882812 8.265625 -57.5625 C 9.171875 -59.25 10.898438 -60.132812 13.453125 -60.21875 C 15.753906 -60.300781 17.4375 -59.601562 18.5 -58.125 C 19.570312 -56.644531 20.398438 -54.914062 20.984375 -52.9375 C 21.066406 -52.613281 21.1875 -52.285156 21.34375 -51.953125 C 21.507812 -51.617188 21.675781 -51.164062 21.84375 -50.59375 C 23.320312 -51.832031 24.695312 -53.046875 25.96875 -54.234375 C 27.25 -55.429688 28.546875 -56.484375 29.859375 -57.390625 C 34.554688 -60.753906 39.367188 -62.085938 44.296875 -61.390625 C 49.234375 -60.691406 53.429688 -58.039062 56.890625 -53.4375 Z M 56.890625 -53.4375 "/></g></g></g><g fill="#000000" fill-opacity="0.502"><g transform="translate(454.160117, 115.306575)"><g><path d="M 56.15625 -52.8125 C 56.476562 -45.90625 56.78125 -38.929688 57.0625 -31.890625 C 57.351562 -24.859375 57.421875 -17.890625 57.265625 -10.984375 C 57.097656 -6.046875 56.066406 -1.359375 54.171875 3.078125 C 52.285156 7.523438 49.695312 11.640625 46.40625 15.421875 C 44.019531 18.222656 41.320312 20.523438 38.3125 22.328125 C 35.3125 24.140625 31.921875 25.253906 28.140625 25.671875 C 25.753906 25.992188 23.550781 25.804688 21.53125 25.109375 C 19.519531 24.410156 17.8125 22.992188 16.40625 20.859375 C 14.6875 18.054688 14.566406 15.296875 16.046875 12.578125 C 17.523438 9.867188 20.195312 7.859375 24.0625 6.546875 C 26.78125 5.554688 29.351562 3.828125 31.78125 1.359375 C 34.207031 -1.109375 36.203125 -3.945312 37.765625 -7.15625 C 39.328125 -10.363281 40.148438 -13.488281 40.234375 -16.53125 C 39.898438 -16.445312 39.609375 -16.363281 39.359375 -16.28125 C 39.117188 -16.207031 38.875 -16.085938 38.625 -15.921875 C 34.34375 -13.285156 30.144531 -12.128906 26.03125 -12.453125 C 21.925781 -12.785156 17.9375 -14.476562 14.0625 -17.53125 C 10.03125 -20.65625 7.253906 -24.519531 5.734375 -29.125 C 4.210938 -33.726562 4.148438 -38.375 5.546875 -43.0625 C 7.359375 -49.070312 10.300781 -53.882812 14.375 -57.5 C 18.445312 -61.125 23.40625 -63.757812 29.25 -65.40625 C 34.351562 -66.882812 39.207031 -66.101562 43.8125 -63.0625 C 44.300781 -62.726562 44.832031 -62.4375 45.40625 -62.1875 C 45.988281 -61.945312 46.609375 -61.742188 47.265625 -61.578125 C 50.054688 -61.085938 52.191406 -60.203125 53.671875 -58.921875 C 55.160156 -57.648438 55.988281 -55.613281 56.15625 -52.8125 Z M 29.859375 -32.453125 C 32.492188 -34.347656 34.675781 -36.53125 36.40625 -39 C 38.132812 -41.46875 39.203125 -44.390625 39.609375 -47.765625 C 38.046875 -48.171875 36.378906 -48.082031 34.609375 -47.5 C 32.847656 -46.925781 31.203125 -46.023438 29.671875 -44.796875 C 28.148438 -43.566406 26.914062 -42.1875 25.96875 -40.65625 C 25.03125 -39.132812 24.640625 -37.632812 24.796875 -36.15625 C 24.960938 -34.675781 25.582031 -33.523438 26.65625 -32.703125 C 27.726562 -31.878906 28.796875 -31.796875 29.859375 -32.453125 Z M 29.859375 -32.453125 "/></g></g></g><g fill="#004aad" fill-opacity="1"><g transform="translate(1.43938, 114.071946)"><g><path d="M 59.609375 -44.671875 C 60.015625 -42.117188 59.5 -39.851562 58.0625 -37.875 C 56.625 -35.90625 54.546875 -34.46875 51.828125 -33.5625 C 50.015625 -32.988281 48.160156 -32.597656 46.265625 -32.390625 C 44.378906 -32.179688 42.613281 -32.039062 40.96875 -31.96875 C 39.320312 -31.882812 37.675781 -31.84375 36.03125 -31.84375 C 34.382812 -31.84375 32.738281 -31.882812 31.09375 -31.96875 C 30.269531 -31.96875 29.46875 -31.96875 28.6875 -31.96875 C 27.90625 -31.96875 27.101562 -31.96875 26.28125 -31.96875 C 26.039062 -31.96875 25.671875 -31.84375 25.171875 -31.59375 C 24.921875 -31.425781 24.675781 -31.34375 24.4375 -31.34375 L 23.6875 -30.96875 L 23.6875 -30.109375 C 23.6875 -29.535156 23.6875 -29 23.6875 -28.5 C 23.6875 -28.007812 23.6875 -27.476562 23.6875 -26.90625 C 23.769531 -25.75 23.8125 -24.53125 23.8125 -23.25 C 23.8125 -21.976562 23.769531 -20.726562 23.6875 -19.5 L 23.578125 -18.265625 C 23.410156 -16.203125 23.222656 -14.144531 23.015625 -12.09375 C 22.804688 -10.039062 22.457031 -8.023438 21.96875 -6.046875 C 21.46875 -3.992188 20.414062 -2.328125 18.8125 -1.046875 C 17.207031 0.222656 15.503906 0.773438 13.703125 0.609375 C 9.910156 0.367188 7.601562 -2.21875 6.78125 -7.15625 C 6.125 -11.519531 5.796875 -15.46875 5.796875 -19 C 5.878906 -24.351562 5.984375 -29.679688 6.109375 -34.984375 C 6.234375 -40.296875 6.335938 -45.625 6.421875 -50.96875 C 6.503906 -55 6.582031 -59.050781 6.65625 -63.125 C 6.738281 -67.195312 6.820312 -71.25 6.90625 -75.28125 C 6.90625 -77.164062 6.492188 -78.929688 5.671875 -80.578125 C 4.441406 -83.128906 4.195312 -85.394531 4.9375 -87.375 C 5.59375 -89.101562 6.988281 -90.378906 9.125 -91.203125 C 13.820312 -93.171875 18.144531 -94.363281 22.09375 -94.78125 C 24.476562 -94.9375 27.085938 -95.117188 29.921875 -95.328125 C 32.765625 -95.535156 35.75 -95.640625 38.875 -95.640625 C 41.34375 -95.640625 43.644531 -95.554688 45.78125 -95.390625 C 49.5625 -95.140625 52.566406 -93.742188 54.796875 -91.203125 C 56.441406 -89.222656 57.179688 -87.082031 57.015625 -84.78125 C 56.765625 -82.226562 55.445312 -80.148438 53.0625 -78.546875 C 50.675781 -76.941406 47.632812 -76.222656 43.9375 -76.390625 C 41.707031 -76.390625 39.441406 -76.390625 37.140625 -76.390625 C 34.835938 -76.390625 32.492188 -76.390625 30.109375 -76.390625 L 22.34375 -76.390625 L 23.453125 -51.34375 L 24.921875 -51.453125 C 25.503906 -51.535156 26.082031 -51.597656 26.65625 -51.640625 C 27.226562 -51.679688 27.804688 -51.742188 28.390625 -51.828125 C 29.703125 -51.992188 30.972656 -52.140625 32.203125 -52.265625 C 33.441406 -52.390625 34.675781 -52.492188 35.90625 -52.578125 L 37.890625 -52.6875 C 39.691406 -52.769531 41.5625 -52.851562 43.5 -52.9375 C 45.4375 -53.019531 47.304688 -53.019531 49.109375 -52.9375 C 51.910156 -52.769531 54.273438 -51.925781 56.203125 -50.40625 C 58.140625 -48.882812 59.273438 -46.972656 59.609375 -44.671875 Z M 59.609375 -44.671875 "/></g></g></g><g fill="#004aad" fill-opacity="1"><g transform="translate(65.728366, 114.071946)"><g><path d="M 80.34375 -86.625 C 81.65625 -83.332031 82.1875 -80.660156 81.9375 -78.609375 C 79.800781 -61.910156 77.664062 -47.019531 75.53125 -33.9375 C 75.113281 -31.800781 74.472656 -29.660156 73.609375 -27.515625 C 72.742188 -25.378906 71.816406 -23.320312 70.828125 -21.34375 C 66.554688 -12.539062 60.0625 -6.863281 51.34375 -4.3125 C 42.53125 -1.769531 33.890625 -3.128906 25.421875 -8.390625 C 12.585938 -16.367188 5.800781 -28.335938 5.0625 -44.296875 C 4.976562 -45.453125 4.957031 -46.601562 5 -47.75 C 5.039062 -48.90625 5.0625 -50.0625 5.0625 -51.21875 C 5.0625 -51.789062 5.0625 -52.34375 5.0625 -52.875 C 5.0625 -53.414062 5.0625 -53.929688 5.0625 -54.421875 L 5.0625 -55.78125 L 4.5625 -55.78125 L 4.9375 -60.09375 C 5.1875 -63.144531 5.429688 -66.191406 5.671875 -69.234375 C 5.921875 -72.273438 6.210938 -75.316406 6.546875 -78.359375 C 6.617188 -79.515625 6.90625 -80.875 7.40625 -82.4375 C 8.632812 -86.132812 10.976562 -88.109375 14.4375 -88.359375 C 16.082031 -88.441406 17.582031 -87.96875 18.9375 -86.9375 C 20.300781 -85.90625 21.226562 -84.488281 21.71875 -82.6875 C 22.625 -79.800781 23.28125 -76.257812 23.6875 -72.0625 C 23.9375 -69.269531 24.179688 -66.472656 24.421875 -63.671875 C 24.671875 -60.878906 24.921875 -58.082031 25.171875 -55.28125 C 25.335938 -53.550781 25.503906 -51.78125 25.671875 -49.96875 C 25.835938 -48.164062 26 -46.359375 26.15625 -44.546875 C 26.894531 -36.484375 30.4375 -30.351562 36.78125 -26.15625 C 40.894531 -23.445312 44.632812 -22.707031 48 -23.9375 C 51.050781 -25.09375 53.148438 -27.6875 54.296875 -31.71875 C 55.453125 -35.832031 56.398438 -39.984375 57.140625 -44.171875 C 57.878906 -48.367188 58.535156 -52.523438 59.109375 -56.640625 L 59.484375 -58.625 C 59.734375 -60.425781 59.9375 -62.253906 60.09375 -64.109375 C 60.257812 -65.960938 60.425781 -67.789062 60.59375 -69.59375 C 60.675781 -71.082031 60.796875 -72.628906 60.953125 -74.234375 C 61.117188 -75.835938 61.285156 -77.378906 61.453125 -78.859375 C 61.867188 -81.984375 62.734375 -84.820312 64.046875 -87.375 C 65.773438 -90.664062 68.613281 -92.1875 72.5625 -91.9375 C 76.34375 -91.769531 78.9375 -90 80.34375 -86.625 Z M 80.34375 -86.625 "/></g></g></g><g fill="#004aad" fill-opacity="1"><g transform="translate(152.351911, 114.071946)"><g><path d="M 92.4375 -88.359375 C 92.925781 -85.890625 93.171875 -83.253906 93.171875 -80.453125 L 92.921875 -70.34375 C 92.753906 -62.53125 92.585938 -54.609375 92.421875 -46.578125 C 92.265625 -38.554688 92.019531 -30.554688 91.6875 -22.578125 C 91.445312 -14.023438 88.9375 -8.429688 84.15625 -5.796875 C 79.550781 -3.242188 73.628906 -4.023438 66.390625 -8.140625 C 62.691406 -10.285156 59.296875 -12.859375 56.203125 -15.859375 C 53.117188 -18.859375 50.59375 -21.550781 48.625 -23.9375 C 46.15625 -26.738281 43.804688 -29.679688 41.578125 -32.765625 C 39.359375 -35.847656 37.179688 -38.910156 35.046875 -41.953125 C 34.140625 -43.191406 33.253906 -44.425781 32.390625 -45.65625 C 31.523438 -46.894531 30.640625 -48.128906 29.734375 -49.359375 L 29.25 -50.21875 C 28.75 -50.882812 28.210938 -51.566406 27.640625 -52.265625 C 27.066406 -52.960938 26.328125 -53.640625 25.421875 -54.296875 L 23.328125 -55.90625 L 23.328125 -51.953125 C 23.328125 -51.460938 23.328125 -50.988281 23.328125 -50.53125 C 23.328125 -50.082031 23.328125 -49.609375 23.328125 -49.109375 L 22.953125 -41.09375 C 22.785156 -35.988281 22.617188 -30.820312 22.453125 -25.59375 C 22.296875 -20.375 22.09375 -15.21875 21.84375 -10.125 C 21.757812 -8.226562 21.222656 -6.332031 20.234375 -4.4375 C 19.003906 -1.882812 17.28125 -0.570312 15.0625 -0.5 C 12.914062 -0.332031 11.144531 -1.441406 9.75 -3.828125 C 8.4375 -5.796875 7.695312 -7.726562 7.53125 -9.625 C 5.96875 -22.539062 5.019531 -34.425781 4.6875 -45.28125 C 4.363281 -56.144531 4.648438 -66.554688 5.546875 -76.515625 C 5.628906 -78.242188 6.082031 -80.050781 6.90625 -81.9375 C 8.226562 -85.3125 10.410156 -87.535156 13.453125 -88.609375 C 14.597656 -88.929688 15.707031 -89.09375 16.78125 -89.09375 C 18.757812 -89.09375 20.648438 -88.5625 22.453125 -87.5 C 25.085938 -86.019531 27.3125 -84.125 29.125 -81.8125 C 31.175781 -79.1875 33.226562 -76.515625 35.28125 -73.796875 C 37.34375 -71.078125 39.363281 -68.40625 41.34375 -65.78125 C 42.488281 -64.289062 43.617188 -62.804688 44.734375 -61.328125 C 45.847656 -59.847656 46.976562 -58.367188 48.125 -56.890625 C 50.101562 -54.253906 52.078125 -51.660156 54.046875 -49.109375 C 56.023438 -46.566406 58 -43.976562 59.96875 -41.34375 L 66.015625 -33.5625 L 69.234375 -34.796875 L 69.359375 -37.015625 C 69.441406 -37.515625 69.484375 -38.007812 69.484375 -38.5 C 69.484375 -39 69.519531 -39.492188 69.59375 -39.984375 C 69.59375 -41.878906 69.632812 -43.769531 69.71875 -45.65625 C 69.800781 -47.550781 69.84375 -49.445312 69.84375 -51.34375 C 70.007812 -56.03125 70.175781 -60.757812 70.34375 -65.53125 C 70.507812 -70.300781 70.671875 -75.070312 70.828125 -79.84375 C 71.078125 -83.46875 71.863281 -87.003906 73.1875 -90.453125 C 74.082031 -92.671875 75.5 -94.359375 77.4375 -95.515625 C 79.375 -96.671875 81.492188 -97.125 83.796875 -96.875 C 85.929688 -96.625 87.800781 -95.71875 89.40625 -94.15625 C 91.007812 -92.59375 92.019531 -90.660156 92.4375 -88.359375 Z M 92.4375 -88.359375 "/></g></g></g><g fill="#ffbd59" fill-opacity="1"><g transform="translate(250.211486, 114.071946)"><g><path d="M 59.234375 -18.140625 C 60.304688 -15.421875 59.851562 -12.625 57.875 -9.75 C 57.707031 -9.5 57.519531 -9.25 57.3125 -9 C 57.113281 -8.757812 56.929688 -8.554688 56.765625 -8.390625 C 43.847656 0.984375 31.507812 3.65625 19.75 -0.375 C 16.375 -1.519531 13.65625 -3.097656 11.59375 -5.109375 C 9.539062 -7.128906 8 -9.332031 6.96875 -11.71875 C 5.945312 -14.101562 5.289062 -16.445312 5 -18.75 C 4.707031 -21.0625 4.5625 -23.117188 4.5625 -24.921875 C 4.8125 -32.578125 5.242188 -40.289062 5.859375 -48.0625 C 6.472656 -55.84375 7.148438 -63.472656 7.890625 -70.953125 L 8.265625 -75.15625 C 8.515625 -77.945312 8.945312 -80.738281 9.5625 -83.53125 C 10.175781 -86.332031 10.9375 -89.335938 11.84375 -92.546875 C 13.082031 -97.328125 15.59375 -99.71875 19.375 -99.71875 C 19.625 -99.71875 19.828125 -99.71875 19.984375 -99.71875 C 22.046875 -99.550781 23.710938 -98.722656 24.984375 -97.234375 C 26.265625 -95.753906 26.988281 -93.820312 27.15625 -91.4375 C 27.476562 -87.40625 27.703125 -83.375 27.828125 -79.34375 C 27.953125 -75.3125 28.097656 -71.488281 28.265625 -67.875 C 28.265625 -66.394531 28.285156 -64.992188 28.328125 -63.671875 C 28.367188 -62.359375 28.425781 -61.085938 28.5 -59.859375 C 28.5 -58.046875 28.5 -56.273438 28.5 -54.546875 C 28.5 -52.816406 28.5 -51.128906 28.5 -49.484375 C 28.5 -45.785156 28.5 -42.1875 28.5 -38.6875 C 28.5 -35.1875 28.5 -31.753906 28.5 -28.390625 C 28.582031 -26.984375 28.707031 -25.828125 28.875 -24.921875 C 29.039062 -24.023438 29.453125 -23.328125 30.109375 -22.828125 C 30.765625 -22.171875 31.609375 -21.820312 32.640625 -21.78125 C 33.671875 -21.738281 34.800781 -21.800781 36.03125 -21.96875 C 36.9375 -22.050781 37.820312 -22.148438 38.6875 -22.265625 C 39.550781 -22.390625 40.4375 -22.492188 41.34375 -22.578125 C 42.25 -22.742188 43.171875 -22.890625 44.109375 -23.015625 C 45.054688 -23.140625 45.984375 -23.242188 46.890625 -23.328125 C 49.273438 -23.492188 51.289062 -23.410156 52.9375 -23.078125 C 56.144531 -22.335938 58.242188 -20.691406 59.234375 -18.140625 Z M 59.234375 -18.140625 "/></g></g></g><g fill="#ffbd59" fill-opacity="1"><g transform="translate(314.500471, 114.071946)"><g><path d="M 63.4375 -24.6875 C 64.257812 -20.976562 64.296875 -17.867188 63.546875 -15.359375 C 62.804688 -12.847656 61.242188 -11.101562 58.859375 -10.125 C 56.316406 -9.050781 53.8125 -9.066406 51.34375 -10.171875 C 48.875 -11.285156 46.566406 -13.40625 44.421875 -16.53125 C 44.253906 -16.78125 44.046875 -17.046875 43.796875 -17.328125 C 43.554688 -17.617188 43.3125 -17.972656 43.0625 -18.390625 C 42.40625 -17.972656 41.8125 -17.535156 41.28125 -17.078125 C 40.75 -16.628906 40.148438 -16.242188 39.484375 -15.921875 C 37.765625 -15.097656 36.039062 -14.210938 34.3125 -13.265625 C 32.582031 -12.316406 30.769531 -11.640625 28.875 -11.234375 C 24.269531 -10.078125 20.050781 -10.28125 16.21875 -11.84375 C 12.394531 -13.40625 9.414062 -15.953125 7.28125 -19.484375 C 5.144531 -23.023438 4.28125 -27.1875 4.6875 -31.96875 C 4.9375 -35.832031 5.941406 -39.613281 7.703125 -43.3125 C 9.472656 -47.019531 11.738281 -50.457031 14.5 -53.625 C 17.257812 -56.789062 20.363281 -59.441406 23.8125 -61.578125 C 27.269531 -63.710938 30.8125 -65.070312 34.4375 -65.65625 C 38.539062 -66.394531 42.257812 -65.960938 45.59375 -64.359375 C 48.925781 -62.753906 52.113281 -60.800781 55.15625 -58.5 C 56.144531 -57.757812 56.863281 -56.601562 57.3125 -55.03125 C 57.769531 -53.46875 58.125 -51.988281 58.375 -50.59375 C 59.363281 -46.3125 60.226562 -41.988281 60.96875 -37.625 C 61.707031 -33.269531 62.53125 -28.957031 63.4375 -24.6875 Z M 27.765625 -29.125 C 31.546875 -30.601562 34.421875 -33.359375 36.390625 -37.390625 C 38.367188 -41.421875 38.945312 -45.78125 38.125 -50.46875 C 34.019531 -48.820312 30.789062 -46.5 28.4375 -43.5 C 26.09375 -40.5 24.222656 -37.066406 22.828125 -33.203125 C 22.660156 -32.617188 22.578125 -31.832031 22.578125 -30.84375 C 22.578125 -29.863281 22.742188 -29.289062 23.078125 -29.125 C 23.734375 -28.789062 24.492188 -28.625 25.359375 -28.625 C 26.222656 -28.625 27.023438 -28.789062 27.765625 -29.125 Z M 27.765625 -29.125 "/></g></g></g><g fill="#ffbd59" fill-opacity="1"><g transform="translate(383.231689, 114.071946)"><g><path d="M 56.890625 -53.4375 C 60.835938 -48.082031 63.242188 -42.398438 64.109375 -36.390625 C 64.972656 -30.390625 64.910156 -24.222656 63.921875 -17.890625 C 63.515625 -15.421875 62.488281 -13.488281 60.84375 -12.09375 C 59.195312 -10.695312 57.34375 -9.957031 55.28125 -9.875 C 53.144531 -9.789062 51.148438 -10.363281 49.296875 -11.59375 C 47.453125 -12.832031 46.238281 -14.6875 45.65625 -17.15625 C 44.914062 -20.03125 44.378906 -22.945312 44.046875 -25.90625 C 43.722656 -28.875 43.359375 -31.835938 42.953125 -34.796875 C 42.785156 -35.867188 42.597656 -36.976562 42.390625 -38.125 C 42.179688 -39.28125 41.957031 -40.640625 41.71875 -42.203125 C 40.8125 -41.460938 40.023438 -40.84375 39.359375 -40.34375 C 38.703125 -39.851562 38.171875 -39.320312 37.765625 -38.75 C 35.046875 -35.289062 32.597656 -31.691406 30.421875 -27.953125 C 28.242188 -24.210938 26.617188 -20.160156 25.546875 -15.796875 C 24.804688 -12.671875 23.382812 -10.304688 21.28125 -8.703125 C 19.1875 -7.097656 16.78125 -6.414062 14.0625 -6.65625 C 11.351562 -6.988281 9.070312 -8.160156 7.21875 -10.171875 C 5.363281 -12.191406 4.476562 -14.804688 4.5625 -18.015625 C 4.726562 -23.691406 4.992188 -29.347656 5.359375 -34.984375 C 5.734375 -40.617188 6.164062 -46.273438 6.65625 -51.953125 C 6.820312 -54.015625 7.359375 -55.882812 8.265625 -57.5625 C 9.171875 -59.25 10.898438 -60.132812 13.453125 -60.21875 C 15.753906 -60.300781 17.4375 -59.601562 18.5 -58.125 C 19.570312 -56.644531 20.398438 -54.914062 20.984375 -52.9375 C 21.066406 -52.613281 21.1875 -52.285156 21.34375 -51.953125 C 21.507812 -51.617188 21.675781 -51.164062 21.84375 -50.59375 C 23.320312 -51.832031 24.695312 -53.046875 25.96875 -54.234375 C 27.25 -55.429688 28.546875 -56.484375 29.859375 -57.390625 C 34.554688 -60.753906 39.367188 -62.085938 44.296875 -61.390625 C 49.234375 -60.691406 53.429688 -58.039062 56.890625 -53.4375 Z M 56.890625 -53.4375 "/></g></g></g><g fill="#ffbd59" fill-opacity="1"><g transform="translate(452.579881, 114.071946)"><g><path d="M 56.15625 -52.8125 C 56.476562 -45.90625 56.78125 -38.929688 57.0625 -31.890625 C 57.351562 -24.859375 57.421875 -17.890625 57.265625 -10.984375 C 57.097656 -6.046875 56.066406 -1.359375 54.171875 3.078125 C 52.285156 7.523438 49.695312 11.640625 46.40625 15.421875 C 44.019531 18.222656 41.320312 20.523438 38.3125 22.328125 C 35.3125 24.140625 31.921875 25.253906 28.140625 25.671875 C 25.753906 25.992188 23.550781 25.804688 21.53125 25.109375 C 19.519531 24.410156 17.8125 22.992188 16.40625 20.859375 C 14.6875 18.054688 14.566406 15.296875 16.046875 12.578125 C 17.523438 9.867188 20.195312 7.859375 24.0625 6.546875 C 26.78125 5.554688 29.351562 3.828125 31.78125 1.359375 C 34.207031 -1.109375 36.203125 -3.945312 37.765625 -7.15625 C 39.328125 -10.363281 40.148438 -13.488281 40.234375 -16.53125 C 39.898438 -16.445312 39.609375 -16.363281 39.359375 -16.28125 C 39.117188 -16.207031 38.875 -16.085938 38.625 -15.921875 C 34.34375 -13.285156 30.144531 -12.128906 26.03125 -12.453125 C 21.925781 -12.785156 17.9375 -14.476562 14.0625 -17.53125 C 10.03125 -20.65625 7.253906 -24.519531 5.734375 -29.125 C 4.210938 -33.726562 4.148438 -38.375 5.546875 -43.0625 C 7.359375 -49.070312 10.300781 -53.882812 14.375 -57.5 C 18.445312 -61.125 23.40625 -63.757812 29.25 -65.40625 C 34.351562 -66.882812 39.207031 -66.101562 43.8125 -63.0625 C 44.300781 -62.726562 44.832031 -62.4375 45.40625 -62.1875 C 45.988281 -61.945312 46.609375 -61.742188 47.265625 -61.578125 C 50.054688 -61.085938 52.191406 -60.203125 53.671875 -58.921875 C 55.160156 -57.648438 55.988281 -55.613281 56.15625 -52.8125 Z M 29.859375 -32.453125 C 32.492188 -34.347656 34.675781 -36.53125 36.40625 -39 C 38.132812 -41.46875 39.203125 -44.390625 39.609375 -47.765625 C 38.046875 -48.171875 36.378906 -48.082031 34.609375 -47.5 C 32.847656 -46.925781 31.203125 -46.023438 29.671875 -44.796875 C 28.148438 -43.566406 26.914062 -42.1875 25.96875 -40.65625 C 25.03125 -39.132812 24.640625 -37.632812 24.796875 -36.15625 C 24.960938 -34.675781 25.582031 -33.523438 26.65625 -32.703125 C 27.726562 -31.878906 28.796875 -31.796875 29.859375 -32.453125 Z M 29.859375 -32.453125 "/></g></g></g></g></g></svg>